<?xml version="1.0" standalone="no"?>
<!DOCTYPE svg PUBLIC "-//W3C//DTD SVG 20010904//EN"
 "http://www.w3.org/TR/2001/REC-SVG-20010904/DTD/svg10.dtd">
<svg version="1.0" xmlns="http://www.w3.org/2000/svg"
 width="320.000000pt" height="320.000000pt" viewBox="0 0 320.000000 320.000000"
 preserveAspectRatio="xMidYMid meet">
<metadata>
Created by potrace 1.14, written by Peter Selinger 2001-2017
</metadata>
<g transform="translate(0.000000,320.000000) scale(0.100000,-0.100000)"
fill="#000000" stroke="none">
<path d="M1480 3108 c-115 -10 -147 -15 -253 -43 -447 -116 -820 -433 -997
-846 -17 -41 -35 -83 -40 -94 -14 -32 -47 -153 -67 -245 -27 -130 -25 -428 5
-571 126 -609 583 -1060 1194 -1181 147 -28 415 -31 555 -5 204 38 421 131
598 257 90 65 251 217 316 299 158 202 267 436 297 640 8 55 9 317 1 325 -6 7
-559 9 -566 3 -4 -4 -13 -101 -17 -182 l-1 -30 175 0 175 0 1 -48 c1 -75 -32
-185 -97 -326 -120 -259 -352 -491 -610 -610 -187 -86 -316 -115 -519 -116
-165 0 -223 6 -333 35 -238 63 -433 174 -602 344 -190 192 -310 423 -350 676
-19 122 -12 380 14 490 119 516 506 887 1026 985 91 17 329 24 390 11 17 -4
48 -9 70 -12 212 -32 485 -175 653 -343 91 -92 209 -253 235 -323 3 -10 22
-42 41 -72 47 -73 103 -101 189 -93 34 4 63 6 65 7 25 4 -68 250 -141 370
-274 452 -866 746 -1407 698z"/>
<path d="M1522 2740 c-49 -31 -87 -77 -136 -170 -40 -76 -95 -234 -111 -315
-19 -99 -27 -156 -23 -160 16 -17 438 -27 601 -15 l67 5 -4 35 c-8 60 -17 114
-27 155 -5 22 -11 48 -14 58 -34 145 -150 355 -223 405 -38 26 -90 27 -130 2z"/>
<path d="M1291 2685 c-35 -19 -71 -41 -81 -50 -9 -8 -20 -15 -23 -15 -22 0
-200 -179 -241 -241 -16 -24 -37 -55 -46 -69 -30 -46 -53 -121 -41 -133 6 -6
11 -7 11 -3 0 5 7 3 15 -4 8 -7 15 -10 15 -7 0 3 57 -10 127 -28 71 -18 129
-32 130 -31 1 1 21 74 43 162 55 214 114 364 166 425 13 14 10 29 -5 29 -3 0
-35 -16 -70 -35z"/>
<path d="M1793 2702 c9 -10 17 -24 17 -30 0 -7 4 -12 8 -12 31 0 142 -323 178
-519 9 -46 7 -46 99 -27 90 19 221 50 227 56 11 8 -60 146 -115 223 -62 86
-170 194 -246 246 -33 23 -62 41 -64 41 -3 0 -22 8 -43 17 -22 9 -48 18 -58
20 -18 3 -18 2 -3 -15z"/>
<path d="M2155 2581 c33 -34 64 -70 69 -79 5 -9 12 -19 16 -22 16 -12 91 -131
125 -200 21 -41 39 -76 40 -78 2 -2 33 12 70 30 l67 34 -43 55 c-95 121 -232
234 -369 304 -32 17 -30 13 25 -44z"/>
<path d="M925 2527 c-92 -68 -174 -151 -232 -232 l-21 -30 51 -24 c46 -23 62
-21 57 4 0 3 6 13 15 21 8 9 13 20 10 25 -4 5 -2 9 3 9 5 0 12 8 16 18 8 23
72 129 86 142 3 3 21 25 39 50 19 25 41 51 50 58 8 6 11 12 5 12 -5 0 -40 -24
-79 -53z"/>
<path d="M622 2187 c-23 -29 -100 -202 -108 -242 -1 -5 -7 -30 -14 -55 -16
-57 -17 -62 -26 -135 -7 -55 -8 -77 -5 -105 1 -6 38 -10 91 -10 l90 0 1 45 c2
57 6 91 25 220 4 30 41 166 53 198 14 36 10 42 -49 72 -37 19 -50 22 -58 12z"/>
<path d="M2550 2185 c-14 -8 -32 -14 -41 -15 -9 0 -19 -7 -23 -15 -3 -8 -12
-15 -21 -15 -20 0 -19 -17 9 -124 25 -94 38 -168 41 -246 1 -25 3 -48 4 -52 0
-5 51 -8 112 -8 l112 0 -7 48 c-8 63 -16 104 -21 112 -2 4 -7 21 -10 39 -3 19
-12 49 -20 67 -8 19 -12 34 -10 34 2 0 -12 32 -31 70 -19 39 -34 74 -34 79 0
4 -8 15 -17 24 -16 13 -21 14 -43 2z"/>
<path d="M796 2056 c-35 -119 -45 -169 -62 -301 -8 -62 -4 -296 7 -372 9 -74
53 -255 67 -279 5 -8 40 -4 122 17 63 16 131 31 150 34 19 3 44 7 55 10 11 2
45 7 75 10 30 3 69 8 85 10 208 27 558 24 715 -5 30 -6 66 -12 80 -15 33 -6
196 -43 237 -54 l33 -9 19 66 c43 146 55 233 55 392 0 142 -6 246 -18 310 -3
14 -7 39 -10 55 -12 69 -40 157 -52 162 -7 2 -72 -9 -146 -25 -152 -35 -160
-36 -433 -58 -96 -7 -359 -8 -420 0 -27 3 -84 8 -125 11 -41 4 -124 19 -185
35 -60 16 -121 31 -135 34 -14 3 -42 9 -62 15 l-37 9 -15 -52z"/>
<path d="M466 1516 c2 -22 6 -60 9 -83 3 -24 6 -45 6 -48 0 -2 5 -19 10 -37 6
-18 12 -42 14 -53 7 -39 13 -61 34 -112 28 -72 78 -170 90 -178 6 -3 22 1 36
10 14 8 36 21 48 29 l24 14 -28 109 c-27 103 -42 188 -54 298 -11 98 -4 91
-103 92 l-89 1 3 -42z"/>
<path d="M2497 1383 c-9 -15 -24 -111 -43 -263 l-6 -55 58 -29 c33 -16 64 -30
70 -32 21 -4 132 275 119 297 -3 4 -1 10 5 14 5 3 10 18 10 33 l0 27 -96 2
c-52 2 -99 5 -104 8 -5 3 -11 2 -13 -2z"/>
<path d="M1429 1126 c-3 -3 -41 -8 -85 -11 -43 -4 -84 -7 -90 -7 -11 -1 -8
-30 21 -160 3 -13 7 -32 9 -43 26 -124 100 -291 166 -374 94 -119 175 -120
269 -1 33 42 109 181 115 213 2 6 6 19 9 27 27 71 63 217 72 293 4 34 2 47 -7
49 -7 0 -24 3 -38 5 -42 6 -436 14 -441 9z"/>
<path d="M1065 1074 c-49 -13 -103 -26 -120 -29 -55 -10 -95 -26 -95 -38 0
-12 40 -98 50 -107 3 -3 18 -25 32 -50 15 -25 37 -58 50 -75 46 -60 174 -182
230 -219 52 -34 156 -81 163 -74 2 2 -11 28 -29 58 -17 30 -44 84 -60 120 -15
36 -31 74 -36 85 -5 11 -11 31 -13 45 -2 14 -7 32 -10 40 -7 18 -34 123 -42
165 -3 17 -8 47 -11 68 -4 20 -9 37 -13 36 -3 0 -46 -11 -96 -25z"/>
<path d="M1986 1014 c-9 -49 -23 -109 -30 -134 -8 -25 -22 -72 -31 -105 -19
-66 -87 -214 -116 -257 -11 -15 -15 -29 -11 -32 11 -7 72 16 72 26 0 4 5 8 11
8 27 0 138 79 209 150 77 75 160 192 214 299 31 63 30 65 -54 81 -30 6 -73 15
-95 21 -44 11 -73 17 -121 26 l-31 5 -17 -88z"/>
<path d="M2362 916 c-71 -138 -112 -196 -228 -319 -37 -38 -24 -41 28 -5 14
10 29 18 32 18 7 0 63 38 118 80 66 52 213 206 226 239 1 4 -13 13 -33 21 -19
8 -35 18 -35 24 0 5 -3 6 -7 3 -3 -4 -11 -3 -17 2 -33 25 -42 18 -84 -63z"/>
<path d="M713 956 l-41 -23 41 -55 c59 -79 123 -139 242 -227 55 -41 58 -38
12 13 -33 37 -114 161 -155 236 -22 41 -44 76 -49 77 -4 1 -27 -8 -50 -21z"/>
</g>
</svg>
