<svg id="Layer_1" data-name="Layer 1" xmlns="http://www.w3.org/2000/svg" viewBox="0 0 247.79 91.79">
  <defs>
    <style>
      .cls-1, .cls-4, .cls-6 {
        fill: none;
      }

      .cls-1, .cls-5 {
        stroke: #1f3a93;
      }

      .cls-1, .cls-3, .cls-4, .cls-5, .cls-6 {
        stroke-linecap: round;
        stroke-linejoin: round;
        stroke-width: 2px;
      }

      .cls-2, .cls-3, .cls-5 {
        fill: #fff;
      }

      .cls-3, .cls-4 {
        stroke: #f5ab35;
      }

      .cls-6 {
        stroke: #c7cee4;
      }

      .cls-7 {
        fill: #8f9dc9;
      }
    </style>
  </defs>
  <title>dropshipping</title>
  <g>
    <line class="cls-1" x1="90.5" y1="64.14" x2="146.75" y2="64.14"/>
    <line class="cls-1" x1="190.54" y1="64.14" x2="246.79" y2="64.14"/>
    <rect class="cls-1" x="18.63" y="39.14" width="25" height="25"/>
    <rect class="cls-1" x="6.13" y="39.14" width="12.5" height="25"/>
    <path class="cls-2" d="M68.21,60.22a6.61,6.61,0,0,1-3.65-1.09,6.64,6.64,0,0,1-7.29,0,6.64,6.64,0,0,1-7.29,0,6.64,6.64,0,0,1-7.29,0,6.64,6.64,0,0,1-7.29,0,6.65,6.65,0,0,1-10.3-5.56V49.2L36.24,38.07H63.72L74.85,49.2v4.37A6.65,6.65,0,0,1,68.21,60.22Z" transform="translate(-25.1 -14.43)"/>
    <polygon class="cls-1" points="118.88 26.64 93.63 39.14 93.63 64.14 99.88 64.14 99.88 45.39 137.38 45.39 137.38 64.14 143.63 64.14 143.63 39.14 118.88 26.64"/>
    <rect class="cls-2" x="103.13" y="61.02" width="31" height="6.25"/>
    <rect class="cls-3" x="106.13" y="61.02" width="12.5" height="6.25"/>
    <rect class="cls-3" x="106.13" y="54.77" width="12.5" height="6.25"/>
    <rect class="cls-3" x="118.63" y="61.02" width="12.5" height="6.25"/>
    <line class="cls-4" x1="105.13" y1="67.27" x2="132.13" y2="67.27"/>
    <rect class="cls-1" x="99.88" y="42.27" width="37.5" height="3.12"/>
    <g>
      <g>
        <polyline class="cls-4" points="16.54 26.64 12.38 26.64 3 36.02"/>
        <line class="cls-4" x1="16.54" y1="26.64" x2="20.71" y2="26.64"/>
        <line class="cls-4" x1="16.54" y1="26.64" x2="10.29" y2="36.02"/>
        <line class="cls-4" x1="24.88" y1="26.64" x2="20.71" y2="26.64"/>
        <line class="cls-4" x1="17.58" y1="36.02" x2="20.71" y2="26.64"/>
        <line class="cls-4" x1="24.88" y1="26.64" x2="29.04" y2="26.64"/>
        <line class="cls-4" x1="24.88" y1="26.64" x2="24.88" y2="36.02"/>
        <line class="cls-4" x1="33.21" y1="26.64" x2="29.04" y2="26.64"/>
        <line class="cls-4" x1="32.17" y1="36.02" x2="29.04" y2="26.64"/>
        <polyline class="cls-4" points="33.21 26.64 37.38 26.64 46.75 36.02"/>
        <line class="cls-4" x1="33.21" y1="26.64" x2="39.46" y2="36.02"/>
      </g>
      <g>
        <line class="cls-4" x1="39.46" y1="39.14" x2="39.46" y2="36.02"/>
        <line class="cls-4" x1="32.17" y1="39.14" x2="32.17" y2="36.02"/>
        <line class="cls-4" x1="24.88" y1="39.14" x2="24.88" y2="36.02"/>
        <line class="cls-4" x1="17.58" y1="39.14" x2="17.58" y2="36.02"/>
        <line class="cls-4" x1="10.29" y1="39.14" x2="10.29" y2="36.02"/>
      </g>
    </g>
    <g>
      <path class="cls-1" d="M64.56,53.57a3.65,3.65,0,1,0,7.29,0V50.45l-9.37-9.38h-25L28.1,50.45v3.12a3.65,3.65,0,0,0,7.3,0" transform="translate(-25.1 -14.43)"/>
      <path class="cls-1" d="M57.27,53.57a3.65,3.65,0,1,0,7.29,0" transform="translate(-25.1 -14.43)"/>
      <path class="cls-1" d="M50,53.57a3.65,3.65,0,1,0,7.29,0" transform="translate(-25.1 -14.43)"/>
      <path class="cls-1" d="M42.69,53.57a3.65,3.65,0,1,0,7.29,0" transform="translate(-25.1 -14.43)"/>
      <path class="cls-1" d="M35.4,53.57a3.65,3.65,0,1,0,7.29,0" transform="translate(-25.1 -14.43)"/>
    </g>
    <line class="cls-1" x1="8" y1="36.02" x2="46.75" y2="36.02"/>
    <rect class="cls-1" x="18.63" y="57.89" width="25" height="6.25"/>
    <line class="cls-1" x1="15.63" y1="51.64" x2="15.63" y2="54.77"/>
    <line class="cls-1" x1="31.13" y1="53.21" x2="37.38" y2="50.08"/>
    <line class="cls-1" x1="24.88" y1="51.64" x2="37.38" y2="45.39"/>
    <line class="cls-1" x1="3" y1="64.14" x2="46.75" y2="64.14"/>
    <line class="cls-1" x1="43.63" y1="64.14" x2="46.75" y2="64.14"/>
    <rect class="cls-1" x="93.63" y="57.89" width="6.25" height="6.25"/>
    <rect class="cls-1" x="137.38" y="57.89" width="6.25" height="6.25"/>
    <line class="cls-1" x1="112.38" y1="36.02" x2="124.88" y2="36.02"/>
    <g>
      <line class="cls-4" x1="192.67" y1="39.14" x2="244.67" y2="39.14"/>
      <line class="cls-4" x1="205.17" y1="26.64" x2="232.17" y2="26.64"/>
      <line class="cls-4" x1="196.83" y1="34.98" x2="240.5" y2="34.98"/>
      <line class="cls-4" x1="201" y1="30.81" x2="236.33" y2="30.81"/>
    </g>
    <polygon class="cls-1" points="232.17 26.64 205.17 26.64 192.67 39.14 244.67 39.14 232.17 26.64"/>
    <polygon class="cls-5" points="224.92 39.14 218.67 32.89 212.42 39.14 193.67 39.14 193.67 64.14 208.25 64.14 229.08 64.14 243.67 64.14 243.67 39.14 224.92 39.14"/>
    <rect class="cls-1" x="204.6" y="48.52" width="3.12" height="6.25"/>
    <rect class="cls-1" x="229.6" y="48.52" width="3.12" height="6.25"/>
    <rect class="cls-5" x="215.54" y="48.52" width="6.25" height="15.62"/>
    <rect class="cls-2" x="191.67" y="40.14" width="54" height="2"/>
    <line class="cls-1" x1="197.67" y1="61.02" x2="211.54" y2="61.02"/>
    <line class="cls-1" x1="225.79" y1="61.02" x2="239.67" y2="61.02"/>
    <g>
      <line class="cls-1" x1="118.63" y1="10.72" x2="118.63" y2="1"/>
      <line class="cls-4" x1="110.31" y1="12.19" x2="108.65" y2="7.62"/>
      <line class="cls-1" x1="103" y1="16.41" x2="96.75" y2="8.96"/>
      <line class="cls-4" x1="97.58" y1="22.87" x2="93.37" y2="20.44"/>
      <line class="cls-4" x1="139.67" y1="22.87" x2="143.88" y2="20.44"/>
      <line class="cls-1" x1="134.25" y1="16.41" x2="140.5" y2="8.96"/>
      <line class="cls-4" x1="126.94" y1="12.19" x2="128.6" y2="7.62"/>
    </g>
    <g>
      <circle class="cls-6" cx="56.13" cy="64.14" r="0.5"/>
      <circle class="cls-6" cx="62.38" cy="64.14" r="0.5"/>
      <circle class="cls-6" cx="68.63" cy="64.14" r="0.5"/>
      <path class="cls-6" d="M100,66.07a6.25,6.25,0,1,1,0,12.5" transform="translate(-25.1 -14.43)"/>
      <path class="cls-6" d="M90.6,66.07a3.13,3.13,0,0,1,0-6.25" transform="translate(-25.1 -14.43)"/>
      <line class="cls-6" x1="81.13" y1="45.39" x2="65.5" y2="45.39"/>
      <line class="cls-6" x1="74.88" y1="51.64" x2="65.5" y2="51.64"/>
      <line class="cls-6" x1="65.5" y1="45.39" x2="87.38" y2="45.39"/>
      <line class="cls-6" x1="87.38" y1="45.39" x2="84.25" y2="48.52"/>
      <line class="cls-6" x1="87.38" y1="45.39" x2="84.25" y2="42.27"/>
    </g>
    <g>
      <path class="cls-6" d="M187.48,66.07a6.25,6.25,0,1,0,0,12.5" transform="translate(-25.1 -14.43)"/>
      <path class="cls-6" d="M196.85,66.07a3.13,3.13,0,1,0,0-6.25" transform="translate(-25.1 -14.43)"/>
      <line class="cls-6" x1="162.38" y1="64.14" x2="184.25" y2="64.14"/>
      <line class="cls-6" x1="184.25" y1="64.14" x2="181.13" y2="67.27"/>
      <line class="cls-6" x1="184.25" y1="64.14" x2="181.13" y2="61.02"/>
      <line class="cls-6" x1="162.38" y1="51.64" x2="171.75" y2="51.64"/>
      <circle class="cls-6" cx="162.38" cy="45.39" r="0.5"/>
      <circle class="cls-6" cx="156.13" cy="45.39" r="0.5"/>
      <circle class="cls-6" cx="149.88" cy="45.39" r="0.5"/>
      <line class="cls-6" x1="168.63" y1="45.39" x2="171.75" y2="45.39"/>
    </g>
    <g>
      <path class="cls-7" d="M37.53,102.49a2.69,2.69,0,0,0,1.39.42c.77,0,1.13-.38,1.13-.86s-.3-.78-1.08-1.07c-1-.37-1.54-1-1.54-1.64a1.79,1.79,0,0,1,2-1.7,2.79,2.79,0,0,1,1.42.36l-.26.76a2.32,2.32,0,0,0-1.19-.33c-.62,0-1,.36-1,.79s.35.69,1.1,1c1,.39,1.53.89,1.53,1.75,0,1-.79,1.74-2.17,1.74a3.27,3.27,0,0,1-1.63-.39Z" transform="translate(-25.1 -14.43)"/>
      <path class="cls-7" d="M43,100.86a1.87,1.87,0,0,0,2,2,3.8,3.8,0,0,0,1.61-.3l.18.75a4.67,4.67,0,0,1-1.93.36A2.69,2.69,0,0,1,42,100.77c0-1.76,1-3.13,2.73-3.13a2.46,2.46,0,0,1,2.4,2.73,4.15,4.15,0,0,1,0,.49Zm3.1-.75a1.51,1.51,0,0,0-1.47-1.72A1.77,1.77,0,0,0,43,100.11Z" transform="translate(-25.1 -14.43)"/>
      <path class="cls-7" d="M48.44,95.06h1.05v8.51H48.44Z" transform="translate(-25.1 -14.43)"/>
      <path class="cls-7" d="M51.27,95.06h1v8.51h-1Z" transform="translate(-25.1 -14.43)"/>
      <path class="cls-7" d="M54.69,100.86a1.86,1.86,0,0,0,2,2,3.83,3.83,0,0,0,1.61-.3l.18.75a4.71,4.71,0,0,1-1.93.36,2.69,2.69,0,0,1-2.86-2.92c0-1.76,1-3.13,2.72-3.13a2.45,2.45,0,0,1,2.4,2.73,4.68,4.68,0,0,1,0,.49Zm3.09-.75a1.5,1.5,0,0,0-1.46-1.72,1.75,1.75,0,0,0-1.62,1.72Z" transform="translate(-25.1 -14.43)"/>
      <path class="cls-7" d="M60.11,99.58c0-.69,0-1.27,0-1.81H61l0,1.14h0a1.75,1.75,0,0,1,1.61-1.27,1.39,1.39,0,0,1,.3,0v1a1.32,1.32,0,0,0-.36,0A1.49,1.49,0,0,0,61.2,100a3.47,3.47,0,0,0,0,.49v3.09h-1Z" transform="translate(-25.1 -14.43)"/>
    </g>
    <g>
      <path class="cls-7" d="M117.52,97.77l.77,3c.17.65.32,1.24.43,1.84h0c.13-.58.32-1.21.51-1.83l1-3h.89l.9,2.9c.21.7.38,1.31.51,1.89h0a17.16,17.16,0,0,1,.44-1.88l.83-2.91h1l-1.87,5.8h-1l-.89-2.77a19.09,19.09,0,0,1-.51-1.91h0a19,19,0,0,1-.53,1.92l-.94,2.76h-1l-1.75-5.8Z" transform="translate(-25.1 -14.43)"/>
      <path class="cls-7" d="M129.1,103.57l-.08-.73h0a2.15,2.15,0,0,1-1.78.86,1.65,1.65,0,0,1-1.77-1.66c0-1.41,1.25-2.17,3.49-2.16v-.12a1.19,1.19,0,0,0-1.32-1.34,2.84,2.84,0,0,0-1.51.43l-.24-.7a3.61,3.61,0,0,1,1.91-.51c1.77,0,2.2,1.21,2.2,2.37v2.17a8.32,8.32,0,0,0,.1,1.39Zm-.16-3c-1.15,0-2.46.18-2.46,1.31a.93.93,0,0,0,1,1,1.42,1.42,0,0,0,1.4-1,1,1,0,0,0,.06-.33Z" transform="translate(-25.1 -14.43)"/>
      <path class="cls-7" d="M131.67,99.58c0-.69,0-1.27,0-1.81h.92l0,1.14h0a1.74,1.74,0,0,1,1.61-1.27,1.39,1.39,0,0,1,.3,0v1a1.32,1.32,0,0,0-.36,0,1.47,1.47,0,0,0-1.42,1.36,3.37,3.37,0,0,0,0,.49v3.09h-1Z" transform="translate(-25.1 -14.43)"/>
      <path class="cls-7" d="M136.06,100.86a1.87,1.87,0,0,0,2,2,3.8,3.8,0,0,0,1.61-.3l.18.75a4.67,4.67,0,0,1-1.93.36,2.69,2.69,0,0,1-2.86-2.92c0-1.76,1-3.13,2.73-3.13a2.45,2.45,0,0,1,2.39,2.73,4.68,4.68,0,0,1,0,.49Zm3.1-.75a1.51,1.51,0,0,0-1.47-1.72,1.76,1.76,0,0,0-1.62,1.72Z" transform="translate(-25.1 -14.43)"/>
      <path class="cls-7" d="M141.48,95.06h1.06v3.62h0a2,2,0,0,1,.76-.74,2.16,2.16,0,0,1,1.08-.3c.78,0,2,.48,2,2.48v3.45h-1.06v-3.33c0-.94-.35-1.73-1.34-1.73a1.51,1.51,0,0,0-1.42,1.06,1.26,1.26,0,0,0-.07.5v3.5h-1.06Z" transform="translate(-25.1 -14.43)"/>
      <path class="cls-7" d="M153.4,100.62a2.83,2.83,0,0,1-2.89,3.08,2.76,2.76,0,0,1-2.79-3,2.83,2.83,0,0,1,2.88-3.08A2.75,2.75,0,0,1,153.4,100.62Zm-4.61.06c0,1.27.73,2.23,1.77,2.23s1.76-1,1.76-2.25c0-1-.49-2.23-1.74-2.23S148.79,99.58,148.79,100.68Z" transform="translate(-25.1 -14.43)"/>
      <path class="cls-7" d="M159.59,102c0,.6,0,1.13,0,1.58h-.94l-.06-.94h0a2.2,2.2,0,0,1-1.92,1.07c-.91,0-2-.5-2-2.54V97.77h1.05V101c0,1.1.34,1.85,1.3,1.85a1.52,1.52,0,0,0,1.39-1,1.57,1.57,0,0,0,.1-.54V97.77h1.05Z" transform="translate(-25.1 -14.43)"/>
      <path class="cls-7" d="M161.2,102.49a2.69,2.69,0,0,0,1.39.42c.77,0,1.13-.38,1.13-.86s-.3-.78-1.08-1.07c-1-.37-1.53-1-1.53-1.64a1.78,1.78,0,0,1,2-1.7,2.83,2.83,0,0,1,1.43.36l-.27.76a2.32,2.32,0,0,0-1.19-.33c-.62,0-1,.36-1,.79s.35.69,1.11,1c1,.39,1.52.89,1.52,1.75,0,1-.79,1.74-2.17,1.74a3.27,3.27,0,0,1-1.63-.39Z" transform="translate(-25.1 -14.43)"/>
      <path class="cls-7" d="M166.68,100.86a1.87,1.87,0,0,0,2,2,3.75,3.75,0,0,0,1.6-.3l.18.75a4.63,4.63,0,0,1-1.93.36,2.69,2.69,0,0,1-2.85-2.92c0-1.76,1-3.13,2.72-3.13a2.46,2.46,0,0,1,2.4,2.73,4.15,4.15,0,0,1,0,.49Zm3.1-.75a1.51,1.51,0,0,0-1.46-1.72,1.75,1.75,0,0,0-1.62,1.72Z" transform="translate(-25.1 -14.43)"/>
    </g>
    <g>
      <path class="cls-7" d="M230.14,103.57c0-.39.05-1,.05-1.5v-7h1.05V98.7h0a2.17,2.17,0,0,1,2-1.06c1.44,0,2.46,1.19,2.45,3,0,2.07-1.31,3.1-2.61,3.1a2.06,2.06,0,0,1-1.94-1.09h0l0,1Zm1.1-2.32a2.33,2.33,0,0,0,0,.38,1.64,1.64,0,0,0,1.59,1.23c1.1,0,1.76-.9,1.76-2.23,0-1.16-.6-2.16-1.73-2.16a1.68,1.68,0,0,0-1.6,1.3,1.71,1.71,0,0,0-.06.43Z" transform="translate(-25.1 -14.43)"/>
      <path class="cls-7" d="M241.88,102c0,.6,0,1.13.05,1.58H241l-.06-.94h0A2.2,2.2,0,0,1,239,103.7c-.91,0-2-.5-2-2.54V97.77H238V101c0,1.1.34,1.85,1.29,1.85a1.54,1.54,0,0,0,1.4-1,1.57,1.57,0,0,0,.09-.54V97.77h1.06Z" transform="translate(-25.1 -14.43)"/>
      <path class="cls-7" d="M244,97.77l1.27,3.43c.13.38.27.84.37,1.18h0c.11-.34.23-.79.38-1.21l1.15-3.4h1.11l-1.58,4.14c-.76,2-1.27,3-2,3.63a2.82,2.82,0,0,1-1.3.68l-.26-.89a2.77,2.77,0,0,0,.92-.51,3.22,3.22,0,0,0,.89-1.18.64.64,0,0,0,.08-.25.81.81,0,0,0-.07-.27l-2.14-5.35Z" transform="translate(-25.1 -14.43)"/>
      <path class="cls-7" d="M249.75,100.86a1.87,1.87,0,0,0,2,2,3.8,3.8,0,0,0,1.61-.3l.18.75a4.67,4.67,0,0,1-1.93.36,2.69,2.69,0,0,1-2.86-2.92c0-1.76,1-3.13,2.73-3.13a2.46,2.46,0,0,1,2.4,2.73,4.15,4.15,0,0,1,0,.49Zm3.1-.75a1.51,1.51,0,0,0-1.47-1.72,1.77,1.77,0,0,0-1.62,1.72Z" transform="translate(-25.1 -14.43)"/>
      <path class="cls-7" d="M255.18,99.58c0-.69,0-1.27-.05-1.81h.92l0,1.14h.05a1.74,1.74,0,0,1,1.6-1.27,1.32,1.32,0,0,1,.3,0v1a1.28,1.28,0,0,0-.36,0,1.47,1.47,0,0,0-1.41,1.36,2.38,2.38,0,0,0,0,.49v3.09h-1Z" transform="translate(-25.1 -14.43)"/>
    </g>
  </g>
</svg>
