<svg xmlns="http://www.w3.org/2000/svg" xmlns:xlink="http://www.w3.org/1999/xlink" viewBox="0 0 2593.22 1566.6">
  <defs>
    <style>
      .cls-1, .cls-17 {
        fill: none;
      }

      .cls-2 {
        isolation: isolate;
      }

      .cls-3 {
        fill: #e6ebf7;
      }

      .cls-4 {
        fill: #b0c4eb;
      }

      .cls-5 {
        fill: #8aade6;
      }

      .cls-6 {
        fill: #6b96f0;
      }

      .cls-7 {
        fill: #3e6ee1;
      }

      .cls-8 {
        opacity: 0.49;
      }

      .cls-11, .cls-22, .cls-8 {
        mix-blend-mode: multiply;
      }

      .cls-9 {
        fill: #3c251d;
      }

      .cls-10 {
        fill: #e593ab;
      }

      .cls-11 {
        opacity: 0.57;
      }

      .cls-12 {
        fill: #dc4566;
      }

      .cls-13 {
        fill: #130c4e;
      }

      .cls-14 {
        fill: #fff;
      }

      .cls-15 {
        fill: #e58f80;
      }

      .cls-16 {
        fill: #e17367;
      }

      .cls-17 {
        stroke: #cf5066;
        stroke-linecap: round;
        stroke-linejoin: round;
        stroke-width: 0.25px;
      }

      .cls-18 {
        fill: #eec191;
      }

      .cls-19 {
        opacity: 0.32;
      }

      .cls-20 {
        opacity: 0.35;
      }

      .cls-21 {
        clip-path: url(#clip-path);
      }
    </style>
    <clipPath id="clip-path" transform="translate(-42.53 -19.32)">
      <rect class="cls-1" x="1370.02" y="793.64" width="113.38" height="172.72" transform="translate(4.58 -7.38) rotate(0.3)"/>
    </clipPath>
  </defs>
  <title>sign_up</title>
  <g class="cls-2">
    <g id="Layer_1" data-name="Layer 1">
      <g>
        <path class="cls-3" d="M281.4,1002.88c-182,131-194.55,384.29-87.57,567.21,114.45,4.29,2224,16.16,2233,0,205-368.85,235.08-1026-104.9-1328.52C2209.15,141.24,2067.09,77.17,1919.84,44,1720.38-.85,1502.15,11.7,1324.22,112.42c-210.59,119.21-305.23,349.4-445.72,534-69.23,91-149.35,172-255.57,217.64-112.18,48.23-238.19,65.42-339.55,137.41Z" transform="translate(-42.53 -19.32)"/>
        <path class="cls-3" d="M889.51,243.45C957.3,302.35,941.7,444,901.49,518c-78,143.52-245.87,290.92-418.23,290-86.05-.44-175.92-64-160.92-158.37,9.33-58.71,50.22-107.08,92.47-148.91,75.12-74.41,159.44-138.55,245.29-200C723.84,255.19,812.38,176.43,889.51,243.45Z" transform="translate(-42.53 -19.32)"/>
        <g>
          <path class="cls-4" d="M1202.12,479.83h-72.23a2.51,2.51,0,0,1-2.51-2.51V405.1a2.51,2.51,0,0,1,2.51-2.51h72.23a2.51,2.51,0,0,1,2.51,2.51v72.22A2.51,2.51,0,0,1,1202.12,479.83Zm-69.71-5h67.2v-67.2h-67.2Z" transform="translate(-42.53 -19.32)"/>
          <path class="cls-4" d="M1160.76,463.79a2.54,2.54,0,0,1-1.83-.79l-19.75-21a2.51,2.51,0,0,1,3.66-3.44l17.71,18.82,32.15-42.68a2.51,2.51,0,1,1,4,3l-34,45.06a2.5,2.5,0,0,1-1.87,1Z" transform="translate(-42.53 -19.32)"/>
        </g>
        <g>
          <path class="cls-4" d="M2287.36,876.65h-57a2,2,0,0,1-2-2V817.72a2,2,0,0,1,2-2h57a2,2,0,0,1,2,2v56.95A2,2,0,0,1,2287.36,876.65Zm-55-4h53v-53h-53Z" transform="translate(-42.53 -19.32)"/>
          <path class="cls-4" d="M2254.75,864a2,2,0,0,1-1.45-.63l-15.57-16.55a2,2,0,1,1,2.88-2.71l14,14.84,25.35-33.66a2,2,0,1,1,3.17,2.39l-26.77,35.53a2,2,0,0,1-1.48.78Z" transform="translate(-42.53 -19.32)"/>
        </g>
        <path class="cls-4" d="M1142.2,164.16a2.31,2.31,0,0,1-1-.24l-21.76-11.45-21.76,11.45a2.21,2.21,0,0,1-2.29-.17,2.15,2.15,0,0,1-.86-2.12l4.14-24.24-17.6-17.17a2.16,2.16,0,0,1,1.21-3.69l24.33-3.54,10.88-22a2.25,2.25,0,0,1,3.89,0l10.89,22,24.33,3.54a2.16,2.16,0,0,1,1.76,1.47,2.13,2.13,0,0,1-.56,2.22l-17.6,17.17,4.15,24.24a2.19,2.19,0,0,1-.86,2.12A2.12,2.12,0,0,1,1142.2,164.16Zm-22.78-16.3a2.27,2.27,0,0,1,1,.24l18.89,9.94-3.6-21a2.12,2.12,0,0,1,.62-1.91l15.28-14.9-21.12-3.07a2.2,2.2,0,0,1-1.64-1.19l-9.44-19.14L1110,115.93a2.24,2.24,0,0,1-1.65,1.19l-21.12,3.07,15.29,14.9a2.12,2.12,0,0,1,.62,1.91l-3.6,21,18.88-9.94A2.31,2.31,0,0,1,1119.42,147.86Z" transform="translate(-42.53 -19.32)"/>
        <path class="cls-4" d="M216.69,714.05a2.33,2.33,0,0,1-1-.25l-21.76-11.45L172.15,713.8a2.21,2.21,0,0,1-2.29-.17,2.12,2.12,0,0,1-.86-2.11l4.14-24.25-17.6-17.17a2.15,2.15,0,0,1,1.21-3.68l24.33-3.54,10.88-22a2.25,2.25,0,0,1,3.89,0l10.89,22,24.33,3.54a2.15,2.15,0,0,1,1.2,3.68l-17.6,17.17,4.15,24.25a2.16,2.16,0,0,1-.86,2.11A2.13,2.13,0,0,1,216.69,714.05Zm-22.78-16.31a2.16,2.16,0,0,1,1,.25l18.89,9.93-3.6-21a2.12,2.12,0,0,1,.62-1.91l15.28-14.9L205,667a2.16,2.16,0,0,1-1.64-1.19l-9.44-19.14-9.44,19.14a2.19,2.19,0,0,1-1.65,1.19l-21.12,3.07L177,685a2.12,2.12,0,0,1,.62,1.91l-3.6,21L192.89,698A2.2,2.2,0,0,1,193.91,697.74Z" transform="translate(-42.53 -19.32)"/>
        <g>
          <path class="cls-5" d="M325.53,1333.26a2.62,2.62,0,0,0,.79.13,3.12,3.12,0,0,0,3.17-3.07c1.65-95.49-55.55-351.86-120.52-401.13a3.1,3.1,0,1,0-3.76,4.94c63.68,48.3,119.69,301.57,118.06,396.09A3.11,3.11,0,0,0,325.53,1333.26Z" transform="translate(-42.53 -19.32)"/>
          <path class="cls-5" d="M271.26,988.39a12.06,12.06,0,1,1,8.29,14.9A12.09,12.09,0,0,1,271.26,988.39Zm6,1.71a5.83,5.83,0,1,0,7.21-4A5.84,5.84,0,0,0,277.25,990.1Z" transform="translate(-42.53 -19.32)"/>
          <path class="cls-5" d="M177.29,903.74a14,14,0,1,1,9.63,17.31A14,14,0,0,1,177.29,903.74Zm6,1.71a7.78,7.78,0,1,0,9.62-5.35A7.79,7.79,0,0,0,183.28,905.45Z" transform="translate(-42.53 -19.32)"/>
          <path class="cls-5" d="M234.05,923.17a17.12,17.12,0,1,1,11.76,21.15A17.14,17.14,0,0,1,234.05,923.17Zm6,1.7a10.89,10.89,0,1,0,13.46-7.48A10.92,10.92,0,0,0,240,924.87Z" transform="translate(-42.53 -19.32)"/>
          <path class="cls-5" d="M201.69,985.54a15.17,15.17,0,1,1,10.43,18.75A15.18,15.18,0,0,1,201.69,985.54Zm6,1.7a8.95,8.95,0,1,0,11.06-6.15A9,9,0,0,0,207.68,987.24Z" transform="translate(-42.53 -19.32)"/>
          <path class="cls-5" d="M212,1051.57a20.62,20.62,0,1,1,14.17,25.48A20.63,20.63,0,0,1,212,1051.57Zm6,1.71a14.39,14.39,0,1,0,17.79-9.89A14.41,14.41,0,0,0,218,1053.28Z" transform="translate(-42.53 -19.32)"/>
          <path class="cls-5" d="M291,1069.65a18.67,18.67,0,1,1,12.84,23.08A18.7,18.7,0,0,1,291,1069.65Zm6,1.71a12.45,12.45,0,1,0,15.38-8.56A12.46,12.46,0,0,0,297,1071.36Z" transform="translate(-42.53 -19.32)"/>
          <path class="cls-5" d="M257.12,1137.26a10.5,10.5,0,1,1,7.21,13A10.51,10.51,0,0,1,257.12,1137.26Zm6,1.71a4.28,4.28,0,1,0,5.29-3A4.27,4.27,0,0,0,263.1,1139Z" transform="translate(-42.53 -19.32)"/>
        </g>
        <path class="cls-4" d="M2437,1554.81c54.48-30.35,135.49-93.07,113.79-130.87s-55.59-33.59-29.42-74.57,94.27-78.92,64.53-124-96.85-57.56-133.46,30.31-10,131.75-56.84,122.62-87.73-24.49-119.8,60.86S2252.5,1549,2252.5,1549Z" transform="translate(-42.53 -19.32)"/>
        <g>
          <path class="cls-6" d="M2412.77,1176a3.91,3.91,0,0,1-1.84-.45,4,4,0,0,1-1.68-5.35c1-1.89,100.51-189.85,189.29-262.86a4,4,0,0,1,5.05,6.14c-87.55,72-186.33,258.53-187.31,260.4A4,4,0,0,1,2412.77,1176Z" transform="translate(-42.53 -19.32)"/>
          <circle class="cls-6" cx="2469.59" cy="1034.6" r="12.88" transform="translate(-245.87 858.03) rotate(-19.36)"/>
          <circle class="cls-6" cx="2492.05" cy="998.26" r="12.88" transform="translate(-170.26 392.75) rotate(-9.22)"/>
          <circle class="cls-6" cx="2521.12" cy="959.94" r="12.88" transform="translate(626.93 2902.48) rotate(-67.5)"/>
          <circle class="cls-6" cx="2511.62" cy="897.68" r="12.88"/>
          <circle class="cls-6" cx="2544" cy="867.29" r="12.88"/>
          <circle class="cls-6" cx="2622.87" cy="891.23" r="12.88" transform="translate(95.49 2096.36) rotate(-45)"/>
          <circle class="cls-6" cx="2610.97" cy="935.5" r="12.88" transform="translate(-187.62 605.58) rotate(-13.28)"/>
          <circle class="cls-6" cx="2539.37" cy="945.25" r="12.88"/>
          <circle class="cls-6" cx="2514.27" cy="972.34" r="12.88"/>
          <circle class="cls-6" cx="2495.11" cy="1002.07" r="12.88"/>
          <circle class="cls-6" cx="2510.55" cy="1053.1" r="12.88" transform="translate(-217.32 585.66) rotate(-13.28)"/>
        </g>
        <g>
          <path class="cls-4" d="M2297.32,1551.36s169.36-156.58,157.6-220-47.71-53.57-61-67.69,76.38-75.59,81.42-105.82c8.41-50.47-17.89-86.93-50.68-90.69s60.82-105.08,23.48-139.13-125.93-51.87-126.48,55.06-63.26,86.1-81.66,114c-46,69.88,35,110.77,20.27,143.22s-61.48-39.85-91,23.47,18.15,295.14,18.15,295.14Z" transform="translate(-42.53 -19.32)"/>
          <path class="cls-5" d="M2424.67,1067.14c-32.8-3.75,60.82-105.08,23.48-139.13a103,103,0,0,0-25.5-16.74c-13.46,19.15-34.76,50.55-50.46,78.84-24.68,44.49-23.67,100.74-8.24,134.12s-54.49,121.73-58.41,160,39.79,43.74,34.84,71c-4.4,24.21-94.6,168.9-114.78,201.07l71.72-5s169.36-156.58,157.6-220-47.71-53.57-61-67.69,76.38-75.59,81.42-105.82C2483.76,1107.36,2457.46,1070.9,2424.67,1067.14Z" transform="translate(-42.53 -19.32)"/>
        </g>
        <g>
          <path class="cls-4" d="M232.22,1565s-161-125.11-155.45-181.87,38-50.8,48.6-64.24-73-60.8-79.71-87.05c-11.22-43.82,9.19-77.92,37.79-83.7s-61.52-88-31.2-120.78,107-55.2,115.56,38.94,62.23,71,80.55,94.27c45.83,58.07-22.44,100.21-7,127.69s51.14-39.76,82,13.78,6.32,261.33,6.32,261.33Z" transform="translate(-42.53 -19.32)"/>
          <path class="cls-5" d="M83.45,1148.14c28.6-5.79-61.52-88-31.2-120.78a91.15,91.15,0,0,1,21.19-16.66c13.3,15.84,34.44,41.89,50.41,65.62,25.1,37.32,28.46,86.94,17.4,117.51s57.18,103.1,63.53,136.51-31.74,41.53-25.31,65.17c5.7,21,96.08,141.63,116.29,168.43L232.22,1565s-161-125.11-155.45-181.87,38-50.8,48.6-64.24-73-60.8-79.71-87.05C34.44,1188,54.85,1153.92,83.45,1148.14Z" transform="translate(-42.53 -19.32)"/>
        </g>
        <g>
          <path class="cls-4" d="M470.92,542.88c-9.28,0-92.26-127.21-92.26-171.33a92.26,92.26,0,0,1,184.52,0C563.18,417.94,480.59,542.88,470.92,542.88Zm0-256.67a85.43,85.43,0,0,0-85.34,85.34c0,43.2,71.59,145.94,85.49,163,13.83-16.21,85.19-119.68,85.19-163A85.43,85.43,0,0,0,470.92,286.21Z" transform="translate(-42.53 -19.32)"/>
          <path class="cls-4" d="M470.92,437.44a64.51,64.51,0,1,1,64.51-64.51A64.58,64.58,0,0,1,470.92,437.44Zm0-122.1a57.6,57.6,0,1,0,57.6,57.59A57.63,57.63,0,0,0,470.92,315.34Z" transform="translate(-42.53 -19.32)"/>
        </g>
        <g>
          <rect class="cls-7" x="1216.97" y="1020.57" width="946.38" height="506.11"/>
          <g class="cls-8">
            <rect class="cls-7" x="1216.97" y="1020.57" width="418.82" height="506.11"/>
          </g>
          <rect class="cls-6" x="1725.04" y="1061.33" width="17.61" height="455.58" rx="0.47" transform="translate(3425.15 2558.91) rotate(180)"/>
          <rect class="cls-6" x="1786.29" y="1061.33" width="17.61" height="455.58" rx="0.47" transform="translate(3547.65 2558.92) rotate(-180)"/>
          <rect class="cls-6" x="1847.54" y="1061.33" width="17.61" height="455.58" rx="0.47" transform="translate(3670.17 2558.91) rotate(180)"/>
          <rect class="cls-6" x="1908.8" y="1061.33" width="17.61" height="455.58" rx="0.47" transform="translate(3792.68 2558.91) rotate(180)"/>
          <rect class="cls-6" x="1968.52" y="1061.33" width="17.61" height="455.58" rx="0.47" transform="translate(3912.11 2558.92) rotate(-180)"/>
          <rect class="cls-6" x="2029.78" y="1061.33" width="17.61" height="455.58" rx="0.47" transform="translate(4034.63 2558.91) rotate(180)"/>
          <rect class="cls-6" x="2097.92" y="1061.33" width="17.61" height="455.58" rx="0.47" transform="translate(4170.92 2558.91) rotate(180)"/>
          <rect class="cls-6" x="2159.18" y="1061.33" width="17.61" height="455.58" rx="0.47" transform="translate(4293.43 2558.91) rotate(180)"/>
          <rect class="cls-6" x="1276.35" y="1106.5" width="383.6" height="19.91" rx="0.53" transform="translate(2893.77 2213.59) rotate(180)"/>
          <rect class="cls-6" x="1276.35" y="1247.39" width="383.6" height="19.91" rx="0.53" transform="translate(2893.77 2495.36) rotate(180)"/>
          <rect class="cls-6" x="1276.35" y="1424.26" width="383.6" height="19.91" rx="0.53" transform="translate(2893.77 2849.1) rotate(180)"/>
          <rect class="cls-9" x="1426.77" y="1021.33" width="5.36" height="490.03"/>
          <rect class="cls-6" x="1236.15" y="1031.46" width="983.9" height="19.52" rx="0.52" transform="translate(3413.66 2063.13) rotate(180)"/>
          <rect class="cls-6" x="1236.15" y="1527.62" width="983.9" height="19.52" rx="0.52" transform="translate(3413.66 3055.45) rotate(180)"/>
          <rect class="cls-4" x="1568.84" y="1011.56" width="11.49" height="486.21" rx="0.31" transform="translate(3106.63 2490) rotate(180)"/>
          <rect class="cls-4" x="1576.69" y="1036.63" width="17.8" height="52.83" transform="translate(3128.64 2106.78) rotate(180)"/>
          <rect class="cls-4" x="1576.69" y="1408.75" width="17.8" height="52.83" transform="translate(3128.64 2851.02) rotate(180)"/>
          <rect class="cls-4" x="1331.67" y="1011.56" width="11.49" height="486.21" rx="0.31" transform="translate(2632.29 2490) rotate(180)"/>
          <rect class="cls-4" x="1339.52" y="1036.63" width="17.8" height="52.83" transform="translate(2654.3 2106.78) rotate(180)"/>
          <rect class="cls-4" x="1339.52" y="1408.75" width="17.8" height="52.83" transform="translate(2654.3 2851.02) rotate(180)"/>
        </g>
        <g>
          <rect class="cls-10" x="1626.93" y="761.44" width="505.91" height="270.56" transform="translate(3717.25 1774.12) rotate(180)"/>
          <g class="cls-11">
            <rect class="cls-10" x="1584.4" y="742.12" width="223.89" height="270.56"/>
          </g>
          <rect class="cls-12" x="1875.79" y="772.9" width="9.41" height="243.54" rx="0.25" transform="translate(3718.47 1770.03) rotate(180)"/>
          <rect class="cls-12" x="1908.54" y="772.9" width="9.41" height="243.54" rx="0.25" transform="translate(3783.96 1770.03) rotate(180)"/>
          <rect class="cls-12" x="1941.29" y="772.9" width="9.41" height="243.54" rx="0.25" transform="translate(3849.45 1770.03) rotate(180)"/>
          <rect class="cls-12" x="1974.03" y="772.9" width="9.41" height="243.54" rx="0.25" transform="translate(3914.94 1770.03) rotate(180)"/>
          <rect class="cls-12" x="2005.96" y="772.9" width="9.41" height="243.54" rx="0.25" transform="translate(3978.8 1770.03) rotate(180)"/>
          <rect class="cls-12" x="2038.7" y="772.9" width="9.41" height="243.54" rx="0.25" transform="translate(4044.29 1770.03) rotate(180)"/>
          <rect class="cls-12" x="2075.13" y="772.9" width="9.41" height="243.54" rx="0.25" transform="translate(4117.14 1770.03) rotate(180)"/>
          <rect class="cls-12" x="2107.88" y="772.9" width="9.41" height="243.54" rx="0.25" transform="translate(4182.63 1770.03) rotate(180)"/>
          <rect class="cls-12" x="1635.94" y="797.05" width="205.07" height="10.64" rx="0.28" transform="translate(3434.41 1585.43) rotate(180)"/>
          <rect class="cls-12" x="1635.94" y="872.37" width="205.07" height="10.64" rx="0.28" transform="translate(3434.41 1736.06) rotate(180)"/>
          <rect class="cls-12" x="1635.94" y="966.92" width="205.07" height="10.64" rx="0.28" transform="translate(3434.41 1925.16) rotate(180)"/>
          <rect class="cls-9" x="1696.55" y="742.53" width="2.87" height="261.96"/>
          <rect class="cls-12" x="1614.45" y="756.94" width="525.97" height="10.44" rx="0.28" transform="translate(3712.33 1505) rotate(180)"/>
          <rect class="cls-12" x="1614.45" y="1022.18" width="525.97" height="10.44" rx="0.28" transform="translate(3712.33 2035.47) rotate(180)"/>
          <rect class="cls-4" x="1792.3" y="746.3" width="6.14" height="259.91" rx="0.16" transform="translate(3548.2 1733.19) rotate(180)"/>
          <rect class="cls-4" x="1796.49" y="759.7" width="9.52" height="28.24" transform="translate(3559.97 1528.33) rotate(180)"/>
          <rect class="cls-4" x="1796.49" y="958.63" width="9.52" height="28.24" transform="translate(3559.97 1926.18) rotate(180)"/>
          <rect class="cls-4" x="1665.51" y="746.3" width="6.14" height="259.91" rx="0.16" transform="translate(3294.63 1733.19) rotate(180)"/>
          <rect class="cls-4" x="1669.71" y="759.7" width="9.52" height="28.24" transform="translate(3306.4 1528.33) rotate(180)"/>
          <rect class="cls-4" x="1669.71" y="958.63" width="9.52" height="28.24" transform="translate(3306.4 1926.18) rotate(180)"/>
        </g>
        <g>
          <path class="cls-4" d="M2420.37,697.9H2207.18a1.64,1.64,0,0,1-1.64-1.65v-174a1.63,1.63,0,0,1,1.64-1.64h213.19a1.64,1.64,0,0,1,1.65,1.64v174A1.65,1.65,0,0,1,2420.37,697.9Zm-211.54-3.3h209.9V523.85h-209.9Z" transform="translate(-42.53 -19.32)"/>
          <path class="cls-4" d="M2420.37,555.76H2207.18a1.64,1.64,0,0,1-1.64-1.65V522a1.63,1.63,0,0,1,1.64-1.64h213.19A1.64,1.64,0,0,1,2422,522v32.09A1.64,1.64,0,0,1,2420.37,555.76Zm-211.54-3.29h209.9v-28.8h-209.9Z" transform="translate(-42.53 -19.32)"/>
          <path class="cls-4" d="M2241.33,588.1h-20.91a1.65,1.65,0,0,1-1.65-1.65V565.53a1.65,1.65,0,0,1,1.65-1.65h20.91a1.65,1.65,0,0,1,1.65,1.65v20.92A1.65,1.65,0,0,1,2241.33,588.1Zm-19.27-3.3h17.63V567.18h-17.63Z" transform="translate(-42.53 -19.32)"/>
          <path class="cls-4" d="M2269,588.1h-20.91a1.65,1.65,0,0,1-1.65-1.65V565.53a1.65,1.65,0,0,1,1.65-1.65H2269a1.65,1.65,0,0,1,1.65,1.65v20.92A1.65,1.65,0,0,1,2269,588.1Zm-19.27-3.3h17.63V567.18h-17.63Z" transform="translate(-42.53 -19.32)"/>
          <path class="cls-4" d="M2296,588.1h-20.92a1.65,1.65,0,0,1-1.65-1.65V565.53a1.65,1.65,0,0,1,1.65-1.65H2296a1.65,1.65,0,0,1,1.65,1.65v20.92A1.65,1.65,0,0,1,2296,588.1Zm-19.27-3.3h17.62V567.18h-17.62Z" transform="translate(-42.53 -19.32)"/>
          <path class="cls-4" d="M2323.69,588.1h-20.92a1.65,1.65,0,0,1-1.65-1.65V565.53a1.65,1.65,0,0,1,1.65-1.65h20.92a1.65,1.65,0,0,1,1.65,1.65v20.92A1.65,1.65,0,0,1,2323.69,588.1Zm-19.27-3.3H2322V567.18h-17.62Z" transform="translate(-42.53 -19.32)"/>
          <path class="cls-4" d="M2352.14,588.1h-20.92a1.65,1.65,0,0,1-1.65-1.65V565.53a1.65,1.65,0,0,1,1.65-1.65h20.92a1.65,1.65,0,0,1,1.65,1.65v20.92A1.65,1.65,0,0,1,2352.14,588.1Zm-19.27-3.3h17.62V567.18h-17.62Z" transform="translate(-42.53 -19.32)"/>
          <path class="cls-4" d="M2379.84,588.1h-20.92a1.65,1.65,0,0,1-1.65-1.65V565.53a1.65,1.65,0,0,1,1.65-1.65h20.92a1.65,1.65,0,0,1,1.65,1.65v20.92A1.65,1.65,0,0,1,2379.84,588.1Zm-19.27-3.3h17.62V567.18h-17.62Z" transform="translate(-42.53 -19.32)"/>
          <path class="cls-4" d="M2406.42,588.1H2385.5a1.65,1.65,0,0,1-1.65-1.65V565.53a1.65,1.65,0,0,1,1.65-1.65h20.92a1.65,1.65,0,0,1,1.65,1.65v20.92A1.65,1.65,0,0,1,2406.42,588.1Zm-19.27-3.3h17.62V567.18h-17.62Z" transform="translate(-42.53 -19.32)"/>
          <path class="cls-4" d="M2241.33,615.84h-20.91a1.65,1.65,0,0,1-1.65-1.65V593.27a1.65,1.65,0,0,1,1.65-1.65h20.91a1.65,1.65,0,0,1,1.65,1.65v20.92A1.65,1.65,0,0,1,2241.33,615.84Zm-19.27-3.3h17.63V594.92h-17.63Z" transform="translate(-42.53 -19.32)"/>
          <path class="cls-4" d="M2269,615.84h-20.91a1.65,1.65,0,0,1-1.65-1.65V593.27a1.65,1.65,0,0,1,1.65-1.65H2269a1.65,1.65,0,0,1,1.65,1.65v20.92A1.65,1.65,0,0,1,2269,615.84Zm-19.27-3.3h17.63V594.92h-17.63Z" transform="translate(-42.53 -19.32)"/>
          <path class="cls-4" d="M2296,615.84h-20.92a1.65,1.65,0,0,1-1.65-1.65V593.27a1.65,1.65,0,0,1,1.65-1.65H2296a1.65,1.65,0,0,1,1.65,1.65v20.92A1.65,1.65,0,0,1,2296,615.84Zm-19.27-3.3h17.62V594.92h-17.62Z" transform="translate(-42.53 -19.32)"/>
          <path class="cls-4" d="M2323.69,615.84h-20.92a1.65,1.65,0,0,1-1.65-1.65V593.27a1.65,1.65,0,0,1,1.65-1.65h20.92a1.65,1.65,0,0,1,1.65,1.65v20.92A1.65,1.65,0,0,1,2323.69,615.84Zm-19.27-3.3H2322V594.92h-17.62Z" transform="translate(-42.53 -19.32)"/>
          <path class="cls-4" d="M2352.14,615.84h-20.92a1.65,1.65,0,0,1-1.65-1.65V593.27a1.65,1.65,0,0,1,1.65-1.65h20.92a1.65,1.65,0,0,1,1.65,1.65v20.92A1.65,1.65,0,0,1,2352.14,615.84Zm-19.27-3.3h17.62V594.92h-17.62Z" transform="translate(-42.53 -19.32)"/>
          <path class="cls-4" d="M2379.84,615.84h-20.92a1.65,1.65,0,0,1-1.65-1.65V593.27a1.65,1.65,0,0,1,1.65-1.65h20.92a1.65,1.65,0,0,1,1.65,1.65v20.92A1.65,1.65,0,0,1,2379.84,615.84Zm-19.27-3.3h17.62V594.92h-17.62Z" transform="translate(-42.53 -19.32)"/>
          <path class="cls-4" d="M2406.42,615.84H2385.5a1.65,1.65,0,0,1-1.65-1.65V593.27a1.65,1.65,0,0,1,1.65-1.65h20.92a1.65,1.65,0,0,1,1.65,1.65v20.92A1.65,1.65,0,0,1,2406.42,615.84Zm-19.27-3.3h17.62V594.92h-17.62Z" transform="translate(-42.53 -19.32)"/>
          <path class="cls-4" d="M2241.33,643.58h-20.91a1.65,1.65,0,0,1-1.65-1.65V621a1.65,1.65,0,0,1,1.65-1.65h20.91A1.65,1.65,0,0,1,2243,621v20.92A1.65,1.65,0,0,1,2241.33,643.58Zm-19.27-3.3h17.63V622.66h-17.63Z" transform="translate(-42.53 -19.32)"/>
          <path class="cls-4" d="M2269,643.58h-20.91a1.65,1.65,0,0,1-1.65-1.65V621a1.65,1.65,0,0,1,1.65-1.65H2269a1.65,1.65,0,0,1,1.65,1.65v20.92A1.65,1.65,0,0,1,2269,643.58Zm-19.27-3.3h17.63V622.66h-17.63Z" transform="translate(-42.53 -19.32)"/>
          <path class="cls-4" d="M2296,643.58h-20.92a1.65,1.65,0,0,1-1.65-1.65V621a1.65,1.65,0,0,1,1.65-1.65H2296a1.65,1.65,0,0,1,1.65,1.65v20.92A1.65,1.65,0,0,1,2296,643.58Zm-19.27-3.3h17.62V622.66h-17.62Z" transform="translate(-42.53 -19.32)"/>
          <path class="cls-4" d="M2323.69,643.58h-20.92a1.65,1.65,0,0,1-1.65-1.65V621a1.65,1.65,0,0,1,1.65-1.65h20.92a1.65,1.65,0,0,1,1.65,1.65v20.92A1.65,1.65,0,0,1,2323.69,643.58Zm-19.27-3.3H2322V622.66h-17.62Z" transform="translate(-42.53 -19.32)"/>
          <path class="cls-4" d="M2352.14,643.58h-20.92a1.65,1.65,0,0,1-1.65-1.65V621a1.65,1.65,0,0,1,1.65-1.65h20.92a1.65,1.65,0,0,1,1.65,1.65v20.92A1.65,1.65,0,0,1,2352.14,643.58Zm-19.27-3.3h17.62V622.66h-17.62Z" transform="translate(-42.53 -19.32)"/>
          <path class="cls-4" d="M2379.84,643.58h-20.92a1.65,1.65,0,0,1-1.65-1.65V621a1.65,1.65,0,0,1,1.65-1.65h20.92a1.65,1.65,0,0,1,1.65,1.65v20.92A1.65,1.65,0,0,1,2379.84,643.58Zm-19.27-3.3h17.62V622.66h-17.62Z" transform="translate(-42.53 -19.32)"/>
          <path class="cls-4" d="M2406.42,643.58H2385.5a1.65,1.65,0,0,1-1.65-1.65V621a1.65,1.65,0,0,1,1.65-1.65h20.92a1.65,1.65,0,0,1,1.65,1.65v20.92A1.65,1.65,0,0,1,2406.42,643.58Zm-19.27-3.3h17.62V622.66h-17.62Z" transform="translate(-42.53 -19.32)"/>
          <path class="cls-4" d="M2241.33,674h-20.91a1.64,1.64,0,0,1-1.65-1.64V651.47a1.64,1.64,0,0,1,1.65-1.65h20.91a1.64,1.64,0,0,1,1.65,1.65v20.92A1.64,1.64,0,0,1,2241.33,674Zm-19.27-3.29h17.63V653.12h-17.63Z" transform="translate(-42.53 -19.32)"/>
          <path class="cls-4" d="M2269,674h-20.91a1.64,1.64,0,0,1-1.65-1.64V651.47a1.64,1.64,0,0,1,1.65-1.65H2269a1.64,1.64,0,0,1,1.65,1.65v20.92A1.64,1.64,0,0,1,2269,674Zm-19.27-3.29h17.63V653.12h-17.63Z" transform="translate(-42.53 -19.32)"/>
          <path class="cls-4" d="M2296,674h-20.92a1.64,1.64,0,0,1-1.65-1.64V651.47a1.65,1.65,0,0,1,1.65-1.65H2296a1.65,1.65,0,0,1,1.65,1.65v20.92A1.64,1.64,0,0,1,2296,674Zm-19.27-3.29h17.62V653.12h-17.62Z" transform="translate(-42.53 -19.32)"/>
          <path class="cls-4" d="M2323.69,674h-20.92a1.64,1.64,0,0,1-1.65-1.64V651.47a1.65,1.65,0,0,1,1.65-1.65h20.92a1.65,1.65,0,0,1,1.65,1.65v20.92A1.64,1.64,0,0,1,2323.69,674Zm-19.27-3.29H2322V653.12h-17.62Z" transform="translate(-42.53 -19.32)"/>
          <g>
            <rect class="cls-4" x="2358.72" y="489.93" width="8.16" height="23.66" rx="0.19"/>
            <path class="cls-4" d="M2406.88,534.55h-3.1a4.17,4.17,0,0,1-4.17-4.17v-18.6a4.18,4.18,0,0,1,4.17-4.19h3.1a4.18,4.18,0,0,1,4.17,4.19v18.6A4.17,4.17,0,0,1,2406.88,534.55Zm-3.1-23.66a.89.89,0,0,0-.87.89v18.6a.88.88,0,0,0,.87.87h3.1a.89.89,0,0,0,.88-.87v-18.6a.9.9,0,0,0-.88-.89Z" transform="translate(-42.53 -19.32)"/>
          </g>
          <g>
            <rect class="cls-4" x="2335.88" y="489.93" width="8.16" height="23.66" rx="0.19"/>
            <path class="cls-4" d="M2384,534.55h-3.1a4.17,4.17,0,0,1-4.17-4.17v-18.6a4.18,4.18,0,0,1,4.17-4.19h3.1a4.2,4.2,0,0,1,4.19,4.19v18.6A4.18,4.18,0,0,1,2384,534.55Zm-3.1-23.66a.89.89,0,0,0-.87.89v18.6a.88.88,0,0,0,.87.87h3.1a.89.89,0,0,0,.89-.87v-18.6a.91.91,0,0,0-.89-.89Z" transform="translate(-42.53 -19.32)"/>
          </g>
          <g>
            <rect class="cls-4" x="2311.13" y="489.93" width="8.16" height="23.66" rx="0.19"/>
            <path class="cls-4" d="M2359.29,534.55h-3.1a4.17,4.17,0,0,1-4.17-4.17v-18.6a4.18,4.18,0,0,1,4.17-4.19h3.1a4.18,4.18,0,0,1,4.17,4.19v18.6A4.17,4.17,0,0,1,2359.29,534.55Zm-3.1-23.66a.89.89,0,0,0-.87.89v18.6a.88.88,0,0,0,.87.87h3.1a.89.89,0,0,0,.88-.87v-18.6a.9.9,0,0,0-.88-.89Z" transform="translate(-42.53 -19.32)"/>
          </g>
          <g>
            <rect class="cls-4" x="2288.29" y="489.93" width="8.16" height="23.66" rx="0.19"/>
            <path class="cls-4" d="M2336.45,534.55h-3.11a4.17,4.17,0,0,1-4.17-4.17v-18.6a4.18,4.18,0,0,1,4.17-4.19h3.11a4.19,4.19,0,0,1,4.18,4.19v18.6A4.18,4.18,0,0,1,2336.45,534.55Zm-3.11-23.66a.89.89,0,0,0-.87.89v18.6a.88.88,0,0,0,.87.87h3.11a.89.89,0,0,0,.88-.87v-18.6a.9.9,0,0,0-.88-.89Z" transform="translate(-42.53 -19.32)"/>
          </g>
          <g>
            <rect class="cls-4" x="2265.45" y="489.93" width="8.16" height="23.66" rx="0.19"/>
            <path class="cls-4" d="M2313.61,534.55h-3.1a4.17,4.17,0,0,1-4.17-4.17v-18.6a4.18,4.18,0,0,1,4.17-4.19h3.1a4.18,4.18,0,0,1,4.17,4.19v18.6A4.17,4.17,0,0,1,2313.61,534.55Zm-3.1-23.66a.9.9,0,0,0-.88.89v18.6a.89.89,0,0,0,.88.87h3.1a.89.89,0,0,0,.88-.87v-18.6a.9.9,0,0,0-.88-.89Z" transform="translate(-42.53 -19.32)"/>
          </g>
          <g>
            <rect class="cls-4" x="2242.61" y="489.93" width="8.16" height="23.66" rx="0.19"/>
            <path class="cls-4" d="M2290.76,534.55h-3.1a4.17,4.17,0,0,1-4.17-4.17v-18.6a4.18,4.18,0,0,1,4.17-4.19h3.1a4.2,4.2,0,0,1,4.19,4.19v18.6A4.18,4.18,0,0,1,2290.76,534.55Zm-3.1-23.66a.9.9,0,0,0-.88.89v18.6a.89.89,0,0,0,.88.87h3.1a.89.89,0,0,0,.89-.87v-18.6a.91.91,0,0,0-.89-.89Z" transform="translate(-42.53 -19.32)"/>
          </g>
          <g>
            <rect class="cls-4" x="2218.68" y="489.93" width="8.16" height="23.66" rx="0.19"/>
            <path class="cls-4" d="M2266.83,534.55h-3.1a4.17,4.17,0,0,1-4.17-4.17v-18.6a4.18,4.18,0,0,1,4.17-4.19h3.1a4.2,4.2,0,0,1,4.19,4.19v18.6A4.18,4.18,0,0,1,2266.83,534.55Zm-3.1-23.66a.89.89,0,0,0-.87.89v18.6a.88.88,0,0,0,.87.87h3.1a.89.89,0,0,0,.89-.87v-18.6a.91.91,0,0,0-.89-.89Z" transform="translate(-42.53 -19.32)"/>
          </g>
          <g>
            <rect class="cls-4" x="2195.83" y="489.93" width="8.16" height="23.66" rx="0.19"/>
            <path class="cls-4" d="M2244,534.55h-3.1a4.18,4.18,0,0,1-4.19-4.17v-18.6a4.2,4.2,0,0,1,4.19-4.19h3.1a4.18,4.18,0,0,1,4.17,4.19v18.6A4.17,4.17,0,0,1,2244,534.55Zm-3.1-23.66a.91.91,0,0,0-.89.89v18.6a.89.89,0,0,0,.89.87h3.1a.88.88,0,0,0,.87-.87v-18.6a.89.89,0,0,0-.87-.89Z" transform="translate(-42.53 -19.32)"/>
          </g>
          <g>
            <rect class="cls-4" x="2173.81" y="489.93" width="8.16" height="23.66" rx="0.19"/>
            <path class="cls-4" d="M2222,534.55h-3.1a4.18,4.18,0,0,1-4.18-4.17v-18.6a4.19,4.19,0,0,1,4.18-4.19h3.1a4.18,4.18,0,0,1,4.17,4.19v18.6A4.17,4.17,0,0,1,2222,534.55Zm-3.1-23.66a.91.91,0,0,0-.89.89v18.6a.89.89,0,0,0,.89.87h3.1a.89.89,0,0,0,.88-.87v-18.6a.9.9,0,0,0-.88-.89Z" transform="translate(-42.53 -19.32)"/>
          </g>
        </g>
        <path class="cls-13" d="M2155.34,1565.32s166.51-168.44,127.79-180-183.93,156.82-183.93,156.82,139.4-213,91-224.59-143.27,242-143.27,242,29-181.34,9.68-186.51S2014,1564,2014,1564Z" transform="translate(-42.53 -19.32)"/>
        <g>
          <g>
            <path class="cls-5" d="M1453.46,440.31h-.13c-4.07-.09-8.25-.14-12.5-.14a6.32,6.32,0,1,1,0-12.64q6.53,0,12.77.14a6.32,6.32,0,0,1-.14,12.64Z" transform="translate(-42.53 -19.32)"/>
            <path class="cls-5" d="M1803.74,708.86c-2.78,0-5.49,0-8.15-.09a6.33,6.33,0,0,1-6.17-6.47c.1-3.49,3.19-5.9,6.47-6.17,8.22.16,17,.06,24.91-.39h.37a6.32,6.32,0,0,1,.37,12.63C1815.86,708.69,1809.94,708.86,1803.74,708.86Zm-33.31-1.81a6.39,6.39,0,0,1-.75,0,197.52,197.52,0,0,1-25.75-4.67,6.32,6.32,0,0,1,3.13-12.25,182.65,182.65,0,0,0,24.1,4.36,6.32,6.32,0,0,1-.73,12.6Zm75.88-1.59a6.32,6.32,0,0,1-1.1-12.54,148.15,148.15,0,0,0,23.45-6.09,6.32,6.32,0,0,1,4.25,11.9,160.52,160.52,0,0,1-25.48,6.63A7.06,7.06,0,0,1,1846.31,705.46Zm-124.63-11.32a6.36,6.36,0,0,1-2.68-.59,109.93,109.93,0,0,1-22.72-14.16,6.32,6.32,0,1,1,8-9.8,96.88,96.88,0,0,0,20.1,12.5,6.32,6.32,0,0,1-2.67,12Zm171.79-6.06a6.32,6.32,0,0,1-3.43-11.63,83.83,83.83,0,0,0,17.77-15.3,6.33,6.33,0,1,1,9.53,8.32,97.07,97.07,0,0,1-20.44,17.6A6.25,6.25,0,0,1,1893.47,688.08Zm-210.54-25.67a6.29,6.29,0,0,1-5.11-2.61,130.71,130.71,0,0,1-13.25-23.11,6.32,6.32,0,1,1,11.5-5.24,119.27,119.27,0,0,0,12,20.92,6.32,6.32,0,0,1-5.11,10Zm243.63-11.85a6.14,6.14,0,0,1-2.81-.67,6.29,6.29,0,0,1-2.84-8.46,130.43,130.43,0,0,0,8.59-22.67,6.33,6.33,0,0,1,12.17,3.46,141.82,141.82,0,0,1-9.46,24.83A6.29,6.29,0,0,1,1926.56,650.56Zm-265.23-34a6.35,6.35,0,0,1-6-4.4c-2.58-8.08-4.87-16.39-7.14-24.78a6.32,6.32,0,1,1,12.19-3.31c2.22,8.22,4.47,16.33,7,24.24a6.33,6.33,0,0,1-4.1,8A6.52,6.52,0,0,1,1661.33,616.56Zm279.74-14.63a6.41,6.41,0,0,1-1.06-.09,6.32,6.32,0,0,1-5.18-7.28c1.38-8.17,2.44-16.53,3.41-25a6.43,6.43,0,0,1,7-5.56,6.32,6.32,0,0,1,5.57,7c-1,8.67-2.1,17.25-3.5,25.64A6.32,6.32,0,0,1,1941.07,601.93Zm-293.55-34.48a6.34,6.34,0,0,1-6.07-4.57c-2.67-9.21-5.13-16.76-7.75-23.76a6.31,6.31,0,0,1,11.82-4.44c2.76,7.31,5.31,15.15,8.08,24.69a6.33,6.33,0,0,1-6.08,8.08Zm299.71-16.22c-.23,0-.45,0-.68,0a6.31,6.31,0,0,1-5.61-7c.92-8.63,1.9-17.19,3.12-25.6a6.43,6.43,0,0,1,7.17-5.34,6.34,6.34,0,0,1,5.35,7.17c-1.2,8.23-2.18,16.65-3.08,25.1A6.31,6.31,0,0,1,1947.23,551.23Zm-318-31.23a6.31,6.31,0,0,1-5.56-3.32,130.48,130.48,0,0,0-13.31-20.22,6.32,6.32,0,0,1,9.85-7.92,144.49,144.49,0,0,1,14.59,22.14,6.34,6.34,0,0,1-2.57,8.57A6.47,6.47,0,0,1,1629.18,520Zm325.89-19.18a6.47,6.47,0,0,1-1.5-.18,6.31,6.31,0,0,1-4.63-7.64,157,157,0,0,1,8.24-25.16,6.31,6.31,0,1,1,11.6,5,146.32,146.32,0,0,0-7.57,23.18A6.34,6.34,0,0,1,1955.07,500.82Zm-357.61-20a6.25,6.25,0,0,1-4-1.45,129.51,129.51,0,0,0-20-13.48,6.32,6.32,0,1,1,6.1-11.08,142.88,142.88,0,0,1,22,14.81,6.32,6.32,0,0,1-4,11.2Zm-44-24.54a6.41,6.41,0,0,1-2.17-.38,209.38,209.38,0,0,0-23.58-7,6.32,6.32,0,1,1,2.93-12.29,224.25,224.25,0,0,1,25,7.44,6.32,6.32,0,0,1-2.18,12.26Zm422.29-1.53a6.31,6.31,0,0,1-5-10.18,92.21,92.21,0,0,1,19.49-18.76,6.32,6.32,0,0,1,7.33,10.29,79.94,79.94,0,0,0-16.82,16.19A6.29,6.29,0,0,1,1975.71,454.76Zm-471.49-10.43c-.31,0-.62,0-.94-.06-7.77-1.15-16.11-2.08-24.8-2.73a6.33,6.33,0,0,1-5.82-6.79,6.62,6.62,0,0,1,6.78-5.82c9,.69,17.63,1.64,25.69,2.82a6.32,6.32,0,0,1-.91,12.58Zm511.88-18.9a6.32,6.32,0,0,1-2.27-12.22,146.57,146.57,0,0,1,25.43-7.08,6.32,6.32,0,0,1,2.34,12.42,133.39,133.39,0,0,0-23.22,6.46A6.29,6.29,0,0,1,2016.1,425.43Z" transform="translate(-42.53 -19.32)"/>
            <path class="cls-5" d="M2069.35,415.42a6.31,6.31,0,0,1-.28-12.62c4.15-.2,8.47-.29,12.93-.29a6.32,6.32,0,1,1,0,12.64q-6.39,0-12.37.26Z" transform="translate(-42.53 -19.32)"/>
          </g>
          <g>
            <path class="cls-6" d="M1538.9,259.19a97.45,97.45,0,0,0-194.9,0c0,53.82,95.17,184.24,97.45,184.24C1445.26,443.43,1538.9,313,1538.9,259.19Z" transform="translate(-42.53 -19.32)"/>
            <path class="cls-7" d="M1440.31,161.74l-.38,0V443.13l.32.3c3.87,0,97.51-130.42,97.51-184.24A97.45,97.45,0,0,0,1440.31,161.74Z" transform="translate(-42.53 -19.32)"/>
            <circle class="cls-14" cx="1398.92" cy="241.39" r="67"/>
          </g>
          <g>
            <path class="cls-10" d="M1886.42,548.89a81.41,81.41,0,0,0-162.82,0c0,45,79.5,153.91,81.41,153.91C1808.19,702.8,1886.42,593.85,1886.42,548.89Z" transform="translate(-42.53 -19.32)"/>
            <path class="cls-12" d="M1804.06,467.48l-.32,0v235c.14.13.27.25.32.25,3.17,0,81.4-108.95,81.4-153.91A81.4,81.4,0,0,0,1804.06,467.48Z" transform="translate(-42.53 -19.32)"/>
            <circle class="cls-14" cx="1805.01" cy="550.16" r="55.97" transform="translate(563.45 1987.91) rotate(-67.5)"/>
          </g>
          <g>
            <path class="cls-4" d="M2200.19,206.79a105.18,105.18,0,0,0-210.35,0c0,58.09,102.71,198.85,105.17,198.85C2099.12,405.64,2200.19,264.88,2200.19,206.79Z" transform="translate(-42.53 -19.32)"/>
            <path class="cls-5" d="M2093.78,101.62l-.41,0V405.32l.35.32c4.17,0,105.24-140.76,105.24-198.85A105.18,105.18,0,0,0,2093.78,101.62Z" transform="translate(-42.53 -19.32)"/>
            <circle class="cls-14" cx="2052.48" cy="189.12" r="72.31"/>
          </g>
          <g>
            <path class="cls-13" d="M1474.1,305.89h-68.49a2.59,2.59,0,0,1-2.58-2.58v-85a2.58,2.58,0,0,1,2.58-2.57h68.49a2.58,2.58,0,0,1,2.58,2.57v85A2.59,2.59,0,0,1,1474.1,305.89Zm-65.91-5.16h63.33V220.86h-63.33Z" transform="translate(-42.53 -19.32)"/>
            <path class="cls-13" d="M1447.05,238.25h-28.34a2.58,2.58,0,1,1,0-5.15h28.34a2.58,2.58,0,0,1,0,5.15Z" transform="translate(-42.53 -19.32)"/>
            <path class="cls-13" d="M1456.71,251.78h-39.94a2.58,2.58,0,0,1,0-5.15h39.94a2.58,2.58,0,0,1,0,5.15Z" transform="translate(-42.53 -19.32)"/>
            <path class="cls-13" d="M1447.69,293.65a2.57,2.57,0,0,1-1.9-.84l-7.09-7.73a2.58,2.58,0,0,1,3.81-3.48l5.37,5.87,14.21-12.5a2.57,2.57,0,1,1,3.4,3.86L1449.39,293A2.52,2.52,0,0,1,1447.69,293.65Z" transform="translate(-42.53 -19.32)"/>
          </g>
          <path class="cls-13" d="M1829.9,592.32c-6.55,0-17.7-19.13-22.14-27.26l-35.27,17.53a1.92,1.92,0,0,1-2.38-.57L1758,565.51a1.9,1.9,0,0,1,1.14-3l6.65-1.38a2,2,0,0,1,1.57.38l3.85,3.08,21.9-21.41c-8.69-3-25.87-9.69-26.31-16.76a3.38,3.38,0,0,1,.94-2.62c1.18-1.27,3.39-1.85,6.94-1.85,10.56,0,30.93,5.23,35.41,6.42,3.52-2.37,18.5-12,28.82-12a13.67,13.67,0,0,1,3.43.41,5,5,0,0,1,3.91,3.6c1.79,6.8-11.56,20.67-15.84,24.9,1.76,8.44,7.71,39,2.62,45.49A3.84,3.84,0,0,1,1829.9,592.32Zm-21.34-31.68a1.91,1.91,0,0,1,1.68,1c6.93,13,16.49,26.87,19.66,26.87v1.9l0-1.9c3.18-4-.14-27.82-3.49-43.46a1.88,1.88,0,0,1,.53-1.76c7.07-6.83,16.56-18.16,15.57-21.94,0-.21-.16-.62-1.2-.89a9.68,9.68,0,0,0-2.46-.28c-10.32,0-27.22,11.69-27.39,11.81a1.88,1.88,0,0,1-1.58.28c-.24-.07-24.11-6.52-35.26-6.52-3.49,0-4.17.65-4.17.65.32,3.51,14.1,10.14,26.74,14.14a1.87,1.87,0,0,1,1.27,1.38,1.89,1.89,0,0,1-.52,1.8l-25.34,24.76a1.93,1.93,0,0,1-2.52.13l-4.45-3.57-2.87.59,9.45,12.84,35.48-17.64A2,2,0,0,1,1808.56,560.64Z" transform="translate(-42.53 -19.32)"/>
          <g>
            <path class="cls-13" d="M2138.09,250.49h-88.53a3.06,3.06,0,0,1-3-3.05V181.8a3.06,3.06,0,0,1,3-3.05h88.53a3.06,3.06,0,0,1,3,3.05v65.64A3.06,3.06,0,0,1,2138.09,250.49Zm-85.48-6.1H2135V184.86h-82.43Z" transform="translate(-42.53 -19.32)"/>
            <path class="cls-13" d="M2138.09,184.86a3.09,3.09,0,0,1-2.48-1.27l-12.82-17.81H2067l-15.11,18a3.06,3.06,0,0,1-4.68-3.93l16-19.08a3,3,0,0,1,2.34-1.09h58.76a3.09,3.09,0,0,1,2.48,1.26L2140.57,180a3.07,3.07,0,0,1-.69,4.27A3.15,3.15,0,0,1,2138.09,184.86Z" transform="translate(-42.53 -19.32)"/>
            <path class="cls-13" d="M2093.06,234.08a3.06,3.06,0,0,1-3-3.05v-33.2a3.06,3.06,0,0,1,6.11,0V231A3.06,3.06,0,0,1,2093.06,234.08Z" transform="translate(-42.53 -19.32)"/>
            <path class="cls-13" d="M2081.61,210a3,3,0,0,1-2.33-5l11.83-14.12a2.72,2.72,0,0,1,2.37-1.09,3.05,3.05,0,0,1,2.35,1.14l10.68,13.36a3.05,3.05,0,1,1-4.77,3.81l-8.36-10.44L2084,208.94A3,3,0,0,1,2081.61,210Z" transform="translate(-42.53 -19.32)"/>
            <path class="cls-13" d="M2092.68,184.86a3.06,3.06,0,0,1-3-3.06V163.1a3,3,0,0,1,6.1,0v18.7A3.06,3.06,0,0,1,2092.68,184.86Z" transform="translate(-42.53 -19.32)"/>
          </g>
        </g>
        <g>
          <g>
            <path class="cls-15" d="M1067,939.65c63.69,238,142.47,249.75,187.73,246.39s26.82-256.45,26.82-256.45L1174.3,860.87Z" transform="translate(-42.53 -19.32)"/>
            <g>
              <path class="cls-9" d="M1076.94,949.15s116.84-19,130.59-51.11-145.36,2.5-145.36,2.5Z" transform="translate(-42.53 -19.32)"/>
              <path class="cls-6" d="M1120.62,1555.55c-5.88-66.26-12.6-140.06-16.73-179.28l-543.46-63.45s-12.7,142.64-21.8,250.47C732.64,1561.38,926.58,1556.31,1120.62,1555.55Z" transform="translate(-42.53 -19.32)"/>
              <path class="cls-9" d="M593.08,1562.79l18.31-166.6a2.4,2.4,0,0,0-2.12-2.65,2.31,2.31,0,0,0-2.64,2.12l-18.37,167.18C589.86,1562.82,591.47,1562.82,593.08,1562.79Z" transform="translate(-42.53 -19.32)"/>
              <path class="cls-9" d="M597.32,1514.72h-.08a2.4,2.4,0,0,1,.19-4.79h.09c2.89.09,114.3,2.18,166.75-138.69a2.42,2.42,0,0,1,3.09-1.4,2.39,2.39,0,0,1,1.41,3.08C715.15,1516.9,600.68,1514.83,597.32,1514.72Z" transform="translate(-42.53 -19.32)"/>
              <path class="cls-9" d="M897.64,1557.94l-2.89-216.19,48.64,2.26-2.58,213.23,4.8-.08,2.6-215.4a2.4,2.4,0,0,0-2.28-2.43l-53.51-2.49h0a2.41,2.41,0,0,0-2.48,2.43L892.85,1558Z" transform="translate(-42.53 -19.32)"/>
              <path class="cls-9" d="M1114.53,1495.78a3.34,3.34,0,0,1-.43,0c-.9-.2-89.31-20.41-84.37-126.63a2.39,2.39,0,0,1,2.47-2.28h0a2.4,2.4,0,0,1,2.28,2.51c-4.75,102.08,77.1,121,80.59,121.71a2.4,2.4,0,0,1-.58,4.74Z" transform="translate(-42.53 -19.32)"/>
              <path class="cls-9" d="M547.08,1458l9-82.1,389.75-8.55S726.31,1430,547.08,1458Z" transform="translate(-42.53 -19.32)"/>
              <path class="cls-12" d="M785.87,555.32S616.69,570,568.84,600c-35.48,22.29-29,169-6.44,268.18,8.94,39.36,11.25,147.31,6.11,187.34L535.39,1422.8l265.9-36.59a426.35,426.35,0,0,1,121.13.7l193.82,28.94s-27.31-456.79-24.58-486.48c0,0,92.76,12.06,153.27-47.38,0,0-14.57-81.21-41.57-140.69s-71.29-121.88-149.75-151.41-170.75-20.7-170.75-20.7Z" transform="translate(-42.53 -19.32)"/>
              <g>
                <path class="cls-16" d="M920.78,417.6s22.77-27.15,44.11-21.29,27.59,50.43,5.93,60.86-49.8-5-49.8-5Z" transform="translate(-42.53 -19.32)"/>
                <path class="cls-9" d="M963.62,447.73a.92.92,0,0,1-.46-1.73c.52-.28,12.75-7,7.71-21.73-2.11-6.18-4.81-9.84-8.49-11.51-4.67-2.12-11.25-1.14-22,3.26a.91.91,0,1,1-.69-1.69c11.41-4.68,18.2-5.62,23.44-3.24,4.18,1.9,7.19,5.9,9.48,12.59,5.55,16.26-8.45,23.87-8.6,23.94A.92.92,0,0,1,963.62,447.73Z" transform="translate(-42.53 -19.32)"/>
                <path class="cls-13" d="M944.9,292.33c11.88,15.92,10.13,51.78,3.78,83.72s-12-60.68-12-60.68l-22.76-25.75Z" transform="translate(-42.53 -19.32)"/>
                <path class="cls-15" d="M911.53,505.38,917.36,563s-47.13,29.11-135,3.31l-6.81-116.18,74.78,49.8Z" transform="translate(-42.53 -19.32)"/>
                <path class="cls-9" d="M913.6,525.85l-2.07-20.47-61.21-5.46-25-16.63-15.42,0C840.32,527.65,898.9,526.81,913.6,525.85Z" transform="translate(-42.53 -19.32)"/>
                <path class="cls-15" d="M945.38,308.19c6.62,16.89.09,42.73,6,77.95s22.87,109.18-45,125.9-128.16-38.81-128.16-38.81L747,362.43c-14.55-51.46,17.29-94,69.23-106.76,1.2-.29,2.42-.57,3.65-.83C921.74,233.41,945.38,308.19,945.38,308.19Z" transform="translate(-42.53 -19.32)"/>
                <path class="cls-13" d="M745.79,408.91,724.93,325.3l56.81-18.62s-1.53,29.75-.44,65.53,7.64,50.23,7.64,50.23Z" transform="translate(-42.53 -19.32)"/>
                <path class="cls-15" d="M780,421.9s-24.39-25.7-45.33-18.55-24.46,52-2.2,61.11,49.4-8,49.4-8Z" transform="translate(-42.53 -19.32)"/>
                <path class="cls-9" d="M894.17,430a1.25,1.25,0,0,1-1-.51,1.22,1.22,0,0,1,.29-1.7c4.78-3.41,9.48-11.59,9.2-20.64-.15-5.05-2.7-8.05-6.56-12.59A92.05,92.05,0,0,1,886.75,382a1.22,1.22,0,0,1,2.09-1.26A90.89,90.89,0,0,0,897.92,393c4,4.75,7,8.19,7.14,14.1.32,10.37-5.08,19-10.22,22.69A1.23,1.23,0,0,1,894.17,430Z" transform="translate(-42.53 -19.32)"/>
                <path class="cls-9" d="M847.65,396.18c-.17-5.81-2.23-10.46-4.59-10.39s-4.12,4.84-3.94,10.65,2.23,10.46,4.59,10.39S847.83,402,847.65,396.18Z" transform="translate(-42.53 -19.32)"/>
                <path class="cls-9" d="M927.76,390.68c-.18-5.81-2.23-10.46-4.59-10.39s-4.13,4.84-3.95,10.65,2.23,10.46,4.59,10.39S927.94,396.49,927.76,390.68Z" transform="translate(-42.53 -19.32)"/>
                <path class="cls-9" d="M739.05,454.59a1,1,0,0,1-.4-.08c-.15-.07-14.59-6.8-10-23.37,1.87-6.82,4.63-11,8.69-13.15,5.08-2.69,11.92-2.17,23.6,1.81a.91.91,0,0,1-.59,1.73c-11-3.74-17.62-4.32-22.16-1.92-3.58,1.9-6,5.71-7.78,12-4.12,15,8.49,21,9,21.22a.92.92,0,0,1-.35,1.75Z" transform="translate(-42.53 -19.32)"/>
                <path class="cls-13" d="M858.42,365.54c-.17,2.06-2.23,3.36-4.09,4.26a82.06,82.06,0,0,1-30.44,8,13.09,13.09,0,0,1-5.54-.53,7.23,7.23,0,0,1-4.34-7.78,9.47,9.47,0,0,1,4.66-6.09,27.42,27.42,0,0,1,7.4-2.68c9.52-2.4,20.07-4.45,28.76.13C856.68,361.8,858.58,363.45,858.42,365.54Z" transform="translate(-42.53 -19.32)"/>
                <path class="cls-13" d="M936.45,366c-6.05.91-14.23-1.31-18.65-.85-3.91.4-11.68,3-12.79-2.75.12-3.86,3.15-7,6.51-8.54a30.34,30.34,0,0,1,8.56-2c6.6-.85,17-2.46,22.12,3.16a5.79,5.79,0,0,1,1.49,5.1C942.76,363.87,940,365.45,936.45,366Z" transform="translate(-42.53 -19.32)"/>
                <path class="cls-9" d="M839.56,414.65c-.57,0-1.17,0-1.78,0a.92.92,0,0,1,.07-1.83c8.29.3,12.26-3.73,12.3-3.78a.92.92,0,0,1,1.29,0,.91.91,0,0,1,0,1.29C851.31,410.47,847.52,414.4,839.56,414.65Z" transform="translate(-42.53 -19.32)"/>
                <path class="cls-9" d="M927.91,405.48c-7.56.23-11.2-2.49-11.35-2.61a.92.92,0,0,1,1.12-1.46c.05,0,3.34,2.45,10.17,2.24a.92.92,0,0,1,.06,1.83Z" transform="translate(-42.53 -19.32)"/>
                <path class="cls-9" d="M817.32,499a.89.89,0,0,1-.47-.12c-.88-.49-21.75-12.13-31-21.6a.91.91,0,0,1,0-1.29.91.91,0,0,1,1.29,0c9,9.28,30.35,21.16,30.56,21.28a.92.92,0,0,1-.42,1.72Z" transform="translate(-42.53 -19.32)"/>
                <path class="cls-9" d="M896,503.51a.9.9,0,0,1-.67-.26.91.91,0,0,1,0-1.29c.38-.39,9.21-9.59,3-17.2a.91.91,0,0,1,.13-1.28.92.92,0,0,1,1.29.13c7.2,8.87-3,19.52-3.16,19.63A1,1,0,0,1,896,503.51Z" transform="translate(-42.53 -19.32)"/>
                <path class="cls-14" d="M884,447.89c-12.56-8.07-20-20.24-35.54-10.25s11.38,36.22,31.74,34.15,29.1-10.92,27-18.77S888.94,451.09,884,447.89Z" transform="translate(-42.53 -19.32)"/>
                <path class="cls-17" d="M763,327.36" transform="translate(-42.53 -19.32)"/>
                <path class="cls-13" d="M731.22,345.19c-24.21-25-34.63-36.83-18.13-55.7S725.88,262,756.3,252.08s25.62-56.15,64.3-58,45,49.27,72.55,41,47-30.63,67.32-9.4,25.9,61.4,5,74.68-14.87,21.34-14.87,21.34-27.34-33.57-50.36-24-18.86,21.79-62.5,18.6-49.34-38.46-59,33.93Z" transform="translate(-42.53 -19.32)"/>
                <path class="cls-13" d="M853.5,329.35c-14.1-.44-27.65-8.1-41.76-16.06-4.88-2.76-9.92-5.62-15.11-8.24l1.3-2.58c5.24,2.67,10.32,5.53,15.22,8.31,19.85,11.2,37,20.92,56.17,12.67a93.2,93.2,0,0,0,21.1-12.7c7.61-5.7,13.09-9.82,24.18-7,6.58,1.71,11.27,5,15.81,8.28,7.5,5.35,14,9.94,27.18,4.52,8.37-3.43,15-11.05,18.72-21.47,5-14.13,3.82-30.83-3.13-43.59l2.53-1.38c7.32,13.46,8.6,31.07,3.3,45.93-4,11.2-11.2,19.43-20.32,23.17-14.66,6-22.09.77-29.94-4.84-4.33-3.08-8.81-6.25-14.88-7.83-9.75-2.5-14.24.88-21.71,6.5a97.06,97.06,0,0,1-21.7,13.05A39.44,39.44,0,0,1,853.5,329.35Z" transform="translate(-42.53 -19.32)"/>
                <path class="cls-14" d="M779.81,305.46l-2.63-1.17c11.1-24.88,19.37-35.48,39.43-33.18,7.41.91,12.87,5.19,18.15,9.31,9.08,7.13,16.93,13.22,33.35,2.81,8.91-5.68,15.41-11.65,21.14-16.92,11.6-10.62,20.78-19.05,41.08-16,9.49,1.4,16.36,0,20.43-4,5.09-5,4.08-12.81,4.08-12.81l2.83-.47c.06.38,1.24,9.23-4.86,15.29-4.75,4.75-12.41,6.34-22.91,4.81-18.86-2.67-27.24,4.81-38.7,15.32-5.82,5.35-12.41,11.4-21.55,17.21-18.15,11.52-27.58,4.16-36.66-2.95-5-3.89-10.11-7.91-16.74-8.7a38.77,38.77,0,0,0-3.9-.31C797.1,273.2,790.17,282.24,779.81,305.46Z" transform="translate(-42.53 -19.32)"/>
              </g>
              <path class="cls-15" d="M782.35,566.3s70.88,63.3,115.49,43.05,41-41.16,41-41.16L917.36,563Z" transform="translate(-42.53 -19.32)"/>
              <path class="cls-9" d="M1091.63,930.37a1,1,0,0,1-1-1c-2-49.24,8.47-99.62,8.57-100.12a1,1,0,0,1,1.19-.77,1,1,0,0,1,.77,1.18c-.1.51-10.55,50.65-8.53,99.62a1,1,0,0,1-1,1Z" transform="translate(-42.53 -19.32)"/>
              <path class="cls-9" d="M1093.47,871.8a1.07,1.07,0,0,1-.56-.19,1,1,0,0,1-.22-1.4l19.81-27.35a1,1,0,0,1,1.4-.22,1,1,0,0,1,.22,1.4l-19.81,27.34A1,1,0,0,1,1093.47,871.8Z" transform="translate(-42.53 -19.32)"/>
              <path class="cls-9" d="M890.31,633c-36.45-1.14-72.83-21.4-73.28-21.66a1,1,0,0,1,1-1.74c.56.31,56,31.15,97.87,18.35a1,1,0,0,1,1.25.66,1,1,0,0,1-.66,1.25A80.87,80.87,0,0,1,890.31,633Z" transform="translate(-42.53 -19.32)"/>
              <path class="cls-9" d="M1105,691.29h-.06a1,1,0,0,1-.9-1.12c1.78-13.52,14.26-35.52,14.79-36.45a1,1,0,0,1,1.37-.37,1,1,0,0,1,.37,1.37c-.13.22-12.81,22.58-14.54,35.7A1,1,0,0,1,1105,691.29Z" transform="translate(-42.53 -19.32)"/>
              <path class="cls-9" d="M761.91,1315a1.48,1.48,0,0,1-.81-.29,1.44,1.44,0,0,1-.31-2c27.15-36.94,76.44-161.54,76.92-162.8a1.47,1.47,0,0,1,1.88-.8,1.43,1.43,0,0,1,.81,1.86c-.5,1.26-49.92,126.21-77.28,163.46A1.45,1.45,0,0,1,761.91,1315Z" transform="translate(-42.53 -19.32)"/>
              <path class="cls-15" d="M357.35,1571.39c-2.05-9-57.12-235-42.46-384.07,14.27-145,121.25-423.33,125.49-435.67l169.06,58.06c-27,78.7-99.39,305.55-109.53,408.7-9.79,99.55,18.82,280.47,31,333.85Z" transform="translate(-42.53 -19.32)"/>
              <path class="cls-9" d="M775.16,1351.4a1.44,1.44,0,0,1-1-2.47c23-22.71,56.8-148.62,57.13-149.89a1.47,1.47,0,0,1,1.76-1,1.44,1.44,0,0,1,1,1.76c-1.39,5.22-34.36,128-57.89,151.21A1.45,1.45,0,0,1,775.16,1351.4Z" transform="translate(-42.53 -19.32)"/>
              <path class="cls-9" d="M383.08,914.73l11.41-34.35,117.76,44.75S485.45,935.72,383.08,914.73Z" transform="translate(-42.53 -19.32)"/>
              <path class="cls-12" d="M568.84,600C436,663,349.62,882,349.62,882s51.83,24,126.3,40,111.21,14.2,111.21,14.2,51.72-55.18,51.93-62S616,666.7,616,666.7Z" transform="translate(-42.53 -19.32)"/>
              <path class="cls-9" d="M595.36,927.18a1,1,0,0,1-.36-.09,1,1,0,0,1-.5-1.3c32.71-74.38,45.61-88.06,46.13-88.61a1,1,0,0,1,1.4,0,1,1,0,0,1,0,1.42c-.14.13-13.29,14.2-45.77,88A1,1,0,0,1,595.36,927.18Z" transform="translate(-42.53 -19.32)"/>
              <path class="cls-9" d="M611.16,894.74a1,1,0,0,1-.93-.73,1,1,0,0,1,.7-1.22c14.44-4,37.72-30,38-30.31a1.05,1.05,0,0,1,1.4-.07,1,1,0,0,1,.07,1.4c-1,1.1-23.9,26.77-38.91,30.9A1.36,1.36,0,0,1,611.16,894.74Z" transform="translate(-42.53 -19.32)"/>
              <path class="cls-16" d="M373.29,1231.92c-6.61-32.3-28.43-59-53.37-81.08-2.17,12.83-3.91,25.1-5,36.48-4.61,46.84-2.32,101.29,3,154.21,6.15-1.49,11.71-4.8,16.79-8.57C365.25,1310.25,380.92,1269.2,373.29,1231.92Z" transform="translate(-42.53 -19.32)"/>
            </g>
          </g>
          <g>
            <g>
              <path class="cls-14" d="M1094.07,567.94h418.69a.84.84,0,0,1,.84.84v727.78a1.36,1.36,0,0,1-1.36,1.36H1094.59a1.36,1.36,0,0,1-1.36-1.36V568.77A.84.84,0,0,1,1094.07,567.94Z"/>
              <path class="cls-5" d="M1546.28,588.37h-396a12.21,12.21,0,0,0-12.2,12.21v55.25h420.36V600.58A12.21,12.21,0,0,0,1546.28,588.37Z" transform="translate(-42.53 -19.32)"/>
              <path class="cls-14" d="M1194.76,646.84a2.94,2.94,0,0,0,1.73-5.31l-20-14.59,22.28-13.86a2.94,2.94,0,1,0-3.11-5l-26,16.17a2.94,2.94,0,0,0-.17,4.87L1193,646.27A2.87,2.87,0,0,0,1194.76,646.84Z" transform="translate(-42.53 -19.32)"/>
              <path class="cls-14" d="M1495.41,646.84a2.94,2.94,0,0,1-1.73-5.31l20-14.59-22.28-13.86a2.94,2.94,0,0,1,3.11-5l26,16.17a2.94,2.94,0,0,1,.17,4.87l-23.52,17.14A2.87,2.87,0,0,1,1495.41,646.84Z" transform="translate(-42.53 -19.32)"/>
              <path class="cls-7" d="M1538,1323.93h-384a24.88,24.88,0,0,1-24.85-24.85V598.45A17.91,17.91,0,0,1,1147,580.56h398a17.91,17.91,0,0,1,17.88,17.89v700.63A24.88,24.88,0,0,1,1538,1323.93ZM1147,594a4.5,4.5,0,0,0-4.49,4.5v700.63a11.47,11.47,0,0,0,11.46,11.47h384a11.47,11.47,0,0,0,11.46-11.47V598.45a4.5,4.5,0,0,0-4.49-4.5Z" transform="translate(-42.53 -19.32)"/>
            </g>
            <circle class="cls-6" cx="1299.67" cy="856.67" r="185.24"/>
            <g>
              <rect class="cls-18" x="1256.43" y="738.96" width="172.72" height="281.22" transform="translate(413.74 2198.46) rotate(-89.7)"/>
              <g>
                <g>
                  <rect class="cls-13" x="1214.89" y="942.24" width="17.62" height="1.97" transform="matrix(0, -1, 1, 0, 231.87, 2142.89)"/>
                  <polygon class="cls-13" points="1183.08 916.38 1181.24 909.39 1179.34 916.36 1183.08 916.38"/>
                </g>
                <g>
                  <rect class="cls-13" x="1208.66" y="942.2" width="17.62" height="1.97" transform="translate(225.34 2136.34) rotate(-89.7)"/>
                  <polygon class="cls-13" points="1176.85 916.34 1175.01 909.36 1173.11 916.32 1176.85 916.34"/>
                </g>
                <rect class="cls-13" x="1213.57" y="953.22" width="13.99" height="2.01" transform="translate(-37.55 -25.66) rotate(0.3)"/>
              </g>
              <g>
                <path class="cls-13" d="M1239.49,954.27l0-11.29a4.91,4.91,0,0,1-.67,0,3.71,3.71,0,0,1-.67-.06l-.06,11.29-3.67,0v1.06l8.69.05v-1.06Z" transform="translate(-42.53 -19.32)"/>
                <path class="cls-13" d="M1238.87,942.61a4.13,4.13,0,0,0,4.16-4.11l0-10-8.26,0-.06,10A4.13,4.13,0,0,0,1238.87,942.61Z" transform="translate(-42.53 -19.32)"/>
              </g>
              <path class="cls-13" d="M1257.25,928.09h0c-5,0-9.17,3.12-9.43,7.09a2.08,2.08,0,0,1,1.58-.62,2.26,2.26,0,0,0,3.25,0,2.16,2.16,0,0,1,1.34.42,2.29,2.29,0,0,1,1.36-.41,2.08,2.08,0,0,1,1.56.64l-.08,14.18c0,5.14-.36,5.35-1.64,5.34a.58.58,0,0,1-.49-.24c-.57-.71-.5-2.58-.43-3.25a.46.46,0,0,0-.37-.52.44.44,0,0,0-.48.41c0,.29-.28,2.84.63,4a1.43,1.43,0,0,0,1.14.57c2.28,0,2.48-1.53,2.5-6.28l.08-14.67a2.61,2.61,0,0,1,.82-.14,2.31,2.31,0,0,0,3.15,0,2.26,2.26,0,0,0,3.24,0,2,2,0,0,1,1.64.72C1266.44,931.35,1262.33,928.12,1257.25,928.09Z" transform="translate(-42.53 -19.32)"/>
              <g class="cls-19">
                <rect class="cls-14" x="1331.74" y="742.38" width="22.07" height="281.22" transform="translate(2190.13 -474.54) rotate(90.3)"/>
              </g>
              <g class="cls-20">
                <g class="cls-21">
                  <polygon class="cls-13" points="1442.52 775.41 1440.11 773.82 1384.19 858.99 1329.15 773.25 1326.72 774.81 1382.45 861.64 1325.83 947.88 1328.24 949.47 1384.16 864.3 1439.19 950.04 1441.63 948.48 1385.9 861.66 1442.52 775.41"/>
                </g>
              </g>
              <g class="cls-22">
                <rect class="cls-18" x="1340.35" y="823.31" width="172.72" height="113.38" transform="translate(496.79 2282.81) rotate(-89.7)"/>
              </g>
              <g class="cls-19">
                <rect class="cls-14" x="1264.73" y="792.86" width="22.07" height="172.72" transform="translate(-37.96 -25.92) rotate(0.3)"/>
              </g>
              <g>
                <rect class="cls-14" x="1309.63" y="804.99" width="49.69" height="43.18" transform="translate(-38.23 -26.23) rotate(0.3)"/>
                <path class="cls-13" d="M1353.48,811.54l-38.94-.2a.81.81,0,0,1-.79-.8v0a.79.79,0,0,1,.8-.79l38.94.2a.8.8,0,0,1,.79.8v0A.8.8,0,0,1,1353.48,811.54Z" transform="translate(-42.53 -19.32)"/>
                <path class="cls-13" d="M1343.69,815.65l-29.17-.15a.81.81,0,0,1-.79-.8v0a.79.79,0,0,1,.8-.79l29.17.15a.8.8,0,0,1,.79.8v0A.81.81,0,0,1,1343.69,815.65Z" transform="translate(-42.53 -19.32)"/>
                <path class="cls-13" d="M1343.67,819.36l-29.17-.16a.8.8,0,0,1-.79-.79v0a.79.79,0,0,1,.8-.79l29.17.15a.8.8,0,0,1,.79.8v0A.8.8,0,0,1,1343.67,819.36Z" transform="translate(-42.53 -19.32)"/>
                <path class="cls-13" d="M1355,834l-15.9-.08a.81.81,0,0,1-.79-.8v0a.79.79,0,0,1,.8-.79l15.9.08a.79.79,0,0,1,.79.8v0A.8.8,0,0,1,1355,834Z" transform="translate(-42.53 -19.32)"/>
                <path class="cls-13" d="M1355,837.11l-10-.05a.8.8,0,0,1-.79-.8v0a.81.81,0,0,1,.8-.79l10,.06a.79.79,0,0,1,.79.79v0A.79.79,0,0,1,1355,837.11Z" transform="translate(-42.53 -19.32)"/>
                <path class="cls-13" d="M1355,840.19l-10.16-.05a.74.74,0,0,1-.74-.74v-.16a.73.73,0,0,1,.73-.73l10.18,0a.74.74,0,0,1,.73.74v.16A.75.75,0,0,1,1355,840.19Z" transform="translate(-42.53 -19.32)"/>
              </g>
            </g>
            <rect class="cls-4" x="1121.39" y="1067.79" width="367.42" height="103.61" rx="3.27"/>
            <g>
              <g>
                <path class="cls-14" d="M1236.82,1162.79h-40.16a1.52,1.52,0,0,1-1.52-1.51v-49.87a1.52,1.52,0,0,1,1.52-1.51h40.16a1.52,1.52,0,0,1,1.52,1.51v49.87A1.52,1.52,0,0,1,1236.82,1162.79Zm-38.65-3h37.14v-46.84h-37.14Z" transform="translate(-42.53 -19.32)"/>
                <path class="cls-14" d="M1221,1123.13h-16.62a1.52,1.52,0,1,1,0-3H1221a1.52,1.52,0,0,1,0,3Z" transform="translate(-42.53 -19.32)"/>
                <path class="cls-14" d="M1226.62,1131.06H1203.2a1.51,1.51,0,0,1,0-3h23.42a1.51,1.51,0,1,1,0,3Z" transform="translate(-42.53 -19.32)"/>
                <path class="cls-14" d="M1221.34,1155.62a1.54,1.54,0,0,1-1.12-.49l-4.16-4.54a1.51,1.51,0,0,1,2.24-2l3.15,3.44,8.33-7.33a1.49,1.49,0,0,1,2.13.14,1.51,1.51,0,0,1-.13,2.13l-9.45,8.31A1.5,1.5,0,0,1,1221.34,1155.62Z" transform="translate(-42.53 -19.32)"/>
              </g>
              <path class="cls-14" d="M1362.59,1165.21c-4.42,0-11.93-12.9-14.93-18.38l-23.78,11.82a1.29,1.29,0,0,1-1.6-.39l-8.2-11.13a1.29,1.29,0,0,1,.77-2l4.49-.92a1.37,1.37,0,0,1,1.06.25l2.59,2.07,14.77-14.43c-5.86-2-17.45-6.53-17.74-11.3a2.28,2.28,0,0,1,.63-1.77c.8-.85,2.29-1.24,4.68-1.24,7.12,0,20.86,3.53,23.87,4.32,2.38-1.59,12.48-8.08,19.44-8.08a9.32,9.32,0,0,1,2.31.27,3.4,3.4,0,0,1,2.64,2.43c1.2,4.59-7.8,13.94-10.69,16.79,1.2,5.69,5.2,26.3,1.77,30.67A2.58,2.58,0,0,1,1362.59,1165.21Zm-14.39-21.36a1.28,1.28,0,0,1,1.13.68c4.68,8.75,11.12,18.11,13.26,18.11v0c2.15-2.72-.09-18.75-2.35-29.29a1.27,1.27,0,0,1,.36-1.2c4.76-4.6,11.16-12.23,10.49-14.79,0-.13-.1-.41-.8-.59a6.09,6.09,0,0,0-1.66-.2c-7,0-18.36,7.89-18.47,8a1.3,1.3,0,0,1-1.07.18c-.16,0-16.25-4.39-23.77-4.39-2.35,0-2.81.44-2.81.44.21,2.37,9.51,6.84,18,9.54a1.27,1.27,0,0,1,.86.92,1.29,1.29,0,0,1-.35,1.21l-17.09,16.7a1.28,1.28,0,0,1-1.7.08l-3-2.4-1.94.4,6.38,8.65,23.92-11.88A1.33,1.33,0,0,1,1348.2,1143.85Z" transform="translate(-42.53 -19.32)"/>
              <g>
                <path class="cls-14" d="M1501.14,1158.9h-46.92a1.62,1.62,0,0,1-1.62-1.61v-34.78a1.62,1.62,0,0,1,1.62-1.62h46.92a1.61,1.61,0,0,1,1.61,1.62v34.78A1.61,1.61,0,0,1,1501.14,1158.9Zm-45.3-3.23h43.68v-31.55h-43.68Z" transform="translate(-42.53 -19.32)"/>
                <path class="cls-14" d="M1501.14,1124.12a1.63,1.63,0,0,1-1.32-.67L1493,1114h-29.56l-8,9.54a1.62,1.62,0,0,1-2.48-2.09l8.5-10.11a1.61,1.61,0,0,1,1.23-.57h31.15a1.62,1.62,0,0,1,1.31.67l7.28,10.11a1.63,1.63,0,0,1-.37,2.26A1.66,1.66,0,0,1,1501.14,1124.12Z" transform="translate(-42.53 -19.32)"/>
                <path class="cls-14" d="M1477.27,1150.21a1.62,1.62,0,0,1-1.61-1.62V1131a1.62,1.62,0,1,1,3.23,0v17.59A1.62,1.62,0,0,1,1477.27,1150.21Z" transform="translate(-42.53 -19.32)"/>
                <path class="cls-14" d="M1471.21,1137.47a1.63,1.63,0,0,1-1-.38,1.6,1.6,0,0,1-.2-2.27l6.27-7.49a1.48,1.48,0,0,1,1.26-.58,1.62,1.62,0,0,1,1.24.61l5.66,7.08a1.62,1.62,0,0,1-2.53,2l-4.43-5.54-5,6A1.62,1.62,0,0,1,1471.21,1137.47Z" transform="translate(-42.53 -19.32)"/>
                <path class="cls-14" d="M1477.07,1124.12a1.62,1.62,0,0,1-1.62-1.61v-9.91a1.62,1.62,0,0,1,3.24,0v9.91A1.62,1.62,0,0,1,1477.07,1124.12Z" transform="translate(-42.53 -19.32)"/>
              </g>
              <path class="cls-14" d="M1216.81,1178.23a42.25,42.25,0,1,1,42.25-42.24A42.3,42.3,0,0,1,1216.81,1178.23Zm0-80.09a37.85,37.85,0,1,0,37.84,37.85A37.9,37.9,0,0,0,1216.81,1098.14Z" transform="translate(-42.53 -19.32)"/>
              <path class="cls-14" d="M1346.52,1178.23a42.25,42.25,0,1,1,42.25-42.24A42.29,42.29,0,0,1,1346.52,1178.23Zm0-80.09a37.85,37.85,0,1,0,37.84,37.85A37.89,37.89,0,0,0,1346.52,1098.14Z" transform="translate(-42.53 -19.32)"/>
              <path class="cls-14" d="M1477.59,1178.23a42.25,42.25,0,1,1,42.25-42.24A42.29,42.29,0,0,1,1477.59,1178.23Zm0-80.09a37.85,37.85,0,1,0,37.84,37.85A37.9,37.9,0,0,0,1477.59,1098.14Z" transform="translate(-42.53 -19.32)"/>
              <path class="cls-14" d="M1264.12,1134.55a2.36,2.36,0,0,1,2.35-2.35h25.59a2.36,2.36,0,1,1,0,4.71h-25.59A2.36,2.36,0,0,1,1264.12,1134.55Z" transform="translate(-42.53 -19.32)"/>
              <path class="cls-14" d="M1282.65,1125.73a2.38,2.38,0,0,1,.55-1.51,2.34,2.34,0,0,1,3.31-.29l10.89,9.11a2.13,2.13,0,0,1,.84,1.83,2.35,2.35,0,0,1-.88,1.81l-10.3,8.24a2.36,2.36,0,0,1-2.94-3.68l8.05-6.44-8.67-7.27A2.33,2.33,0,0,1,1282.65,1125.73Z" transform="translate(-42.53 -19.32)"/>
              <g>
                <path class="cls-14" d="M1394.7,1134.55a2.35,2.35,0,0,1,2.35-2.35h25.59a2.36,2.36,0,0,1,0,4.71h-25.59A2.36,2.36,0,0,1,1394.7,1134.55Z" transform="translate(-42.53 -19.32)"/>
                <path class="cls-14" d="M1413.23,1125.73a2.35,2.35,0,0,1,3.86-1.8L1428,1133a2.1,2.1,0,0,1,.84,1.83,2.32,2.32,0,0,1-.88,1.81l-10.29,8.24a2.36,2.36,0,0,1-3.31-.37,2.34,2.34,0,0,1,.37-3.31l8-6.44-8.68-7.27A2.32,2.32,0,0,1,1413.23,1125.73Z" transform="translate(-42.53 -19.32)"/>
              </g>
            </g>
          </g>
          <g>
            <path class="cls-15" d="M1629.17,845.93l-132.58-4.56c-23.67-.8-44,20.21-45.56,47-1.27,22.19,11,41.15,28.65,47.49-19.14,4.44-34.25,23-35.55,45.86-1,17.5,6.42,33,18.25,41.91-14.07,7.65-24.35,23.28-25.41,41.89-1.28,22.5,11.29,41.71,29.38,47.78-12.82,6.77-22.2,20.92-23.16,37.77-1.36,24,14.71,44,35.91,44.73l118.86,4.08a35.09,35.09,0,0,0,15.68-3.14c13.87-6.27,24.15-21.21,25.17-39,1-16.75-6.72-31.42-18.61-39.08a39.43,39.43,0,0,0,6.9-2.24c15.47-7,26.94-23.65,28.07-43.45,1-17.56-6.48-33.08-18.37-42,14.08-7.63,24.46-23.18,25.52-41.81,1.27-22.18-11-41.13-28.62-47.48a40.62,40.62,0,0,0,7.46-2.42c15.46-7,26.94-23.65,28.07-43.45C1670.75,869.08,1652.81,846.75,1629.17,845.93Z" transform="translate(-42.53 -19.32)"/>
            <path class="cls-9" d="M1479.09,937.59a1.92,1.92,0,0,1,.71-3.63l154,5.87a1.74,1.74,0,0,1,1.54,1.93,1.82,1.82,0,0,1-1.76,1.8l-154-5.87A1.58,1.58,0,0,1,1479.09,937.59Z" transform="translate(-42.53 -19.32)"/>
            <path class="cls-9" d="M1461.78,1025.36a1.8,1.8,0,0,1-1.06-1.75,1.84,1.84,0,0,1,1.71-1.88l94.65-.65a1.71,1.71,0,0,1,1.61,1.86,1.85,1.85,0,0,1-1.71,1.89l-94.66.64A1.41,1.41,0,0,1,1461.78,1025.36Z" transform="translate(-42.53 -19.32)"/>
            <path class="cls-9" d="M1503.57,1117.41a1.78,1.78,0,0,1-1-1.73,1.83,1.83,0,0,1,1.67-1.9l107.34-2.06a1.66,1.66,0,0,1,1.63,1.83,1.84,1.84,0,0,1-1.68,1.9l-107.34,2.06A1.37,1.37,0,0,1,1503.57,1117.41Z" transform="translate(-42.53 -19.32)"/>
            <path class="cls-9" d="M1465.75,1115a1.78,1.78,0,0,1-1.06-1.64,1.88,1.88,0,0,1,1.6-2l15.08-1.11a1.68,1.68,0,0,1,1.71,1.74,1.88,1.88,0,0,1-1.6,2l-15.08,1.11A1.41,1.41,0,0,1,1465.75,1115Z" transform="translate(-42.53 -19.32)"/>
            <path class="cls-9" d="M1518.39,916.35a1.78,1.78,0,0,1-.49.13l-34.79,3.68a1.55,1.55,0,0,1-1.37-.58c-.55-.65-13.29-16.35-10.51-40a1.9,1.9,0,0,1,1.93-1.73,1.82,1.82,0,0,1,1.48,2.11,53,53,0,0,0,9.13,36.25l33.15-3.51c15.06-22.55,5.21-48.74,2.86-54.25L1490.91,861a1.71,1.71,0,0,1-1.79-1.77,2,2,0,0,1,1.63-2.09l30-2.66a1.59,1.59,0,0,1,1.58.94c.16.33,15.81,32.86-3.19,60.28A1.79,1.79,0,0,1,1518.39,916.35Z" transform="translate(-42.53 -19.32)"/>
            <path class="cls-9" d="M1502,1008.62a1.69,1.69,0,0,1-.49.09l-34.85.68a1.57,1.57,0,0,1-1.32-.7c-.51-.7-12.12-17.49-7.75-40.89a1.73,1.73,0,1,1,3.36.68,54.06,54.06,0,0,0,6.63,37l33.21-.64c16.5-21.25,8.48-48.28,6.51-54l-28.89.08a1.76,1.76,0,0,1-1.66-1.93,1.92,1.92,0,0,1,1.77-1.94l30-.07a1.63,1.63,0,0,1,1.51,1.07c.13.34,13.5,34.21-7.24,60A1.8,1.8,0,0,1,1502,1008.62Z" transform="translate(-42.53 -19.32)"/>
            <path class="cls-9" d="M1500,1097.84a1.69,1.69,0,0,1-.49.09l-34.85.68a1.57,1.57,0,0,1-1.32-.7c-.51-.7-12.12-17.49-7.75-40.89a1.73,1.73,0,1,1,3.36.68,54.06,54.06,0,0,0,6.63,37l33.21-.64c16.5-21.25,8.48-48.28,6.51-54l-28.89.08a1.76,1.76,0,0,1-1.66-1.93,1.91,1.91,0,0,1,1.76-1.94l30-.08a1.63,1.63,0,0,1,1.52,1.08c.13.34,13.49,34.21-7.25,60A1.72,1.72,0,0,1,1500,1097.84Z" transform="translate(-42.53 -19.32)"/>
            <path class="cls-9" d="M1505,1185.4a1.85,1.85,0,0,1-.47.08l-33,.64a1.44,1.44,0,0,1-1.25-.66,53.76,53.76,0,0,1-7.34-38.73,1.75,1.75,0,0,1,1.92-1.48,1.77,1.77,0,0,1,1.26,2.12,51.18,51.18,0,0,0,6.28,35.06l31.46-.61c15.62-20.12,8-45.72,6.16-51.13l-27.36.07a1.66,1.66,0,0,1-1.57-1.82,1.81,1.81,0,0,1,1.67-1.84l28.41-.07a1.55,1.55,0,0,1,1.44,1c.12.33,12.78,32.41-6.86,56.82A1.72,1.72,0,0,1,1505,1185.4Z" transform="translate(-42.53 -19.32)"/>
          </g>
        </g>
        <g>
          <path class="cls-4" d="M1825.51,266H1722.14a3.9,3.9,0,0,1-3.89-3.89V133.75a3.9,3.9,0,0,1,3.89-3.89h103.37a3.89,3.89,0,0,1,3.89,3.89V262.08A3.89,3.89,0,0,1,1825.51,266ZM1726,258.19h95.6V137.64H1726Z" transform="translate(-42.53 -19.32)"/>
          <path class="cls-4" d="M1784.68,163.89H1741.9a3.89,3.89,0,0,1,0-7.78h42.78a3.89,3.89,0,0,1,0,7.78Z" transform="translate(-42.53 -19.32)"/>
          <path class="cls-4" d="M1799.26,184.31H1739a3.89,3.89,0,0,1,0-7.78h60.27a3.89,3.89,0,1,1,0,7.78Z" transform="translate(-42.53 -19.32)"/>
          <path class="cls-4" d="M1785.65,247.5a4,4,0,0,1-2.87-1.26l-10.69-11.67a3.89,3.89,0,1,1,5.74-5.25l8.11,8.85,21.45-18.86a3.89,3.89,0,1,1,5.14,5.83l-24.31,21.39A3.87,3.87,0,0,1,1785.65,247.5Z" transform="translate(-42.53 -19.32)"/>
        </g>
        <path class="cls-13" d="M2492.12,1585.92H104.61c-8,0-14.41-8.12-14.41-18.13s6.45-18.13,14.41-18.13H2492.12c8,0,14.41,8.12,14.41,18.13S2500.08,1585.92,2492.12,1585.92Z" transform="translate(-42.53 -19.32)"/>
      </g>
    </g>
  </g>
</svg>
